<?xml version="1.0" encoding="UTF-8"?>
<svg width="39px" height="56px" viewBox="0 0 39 56" version="1.1" xmlns="http://www.w3.org/2000/svg" xmlns:xlink="http://www.w3.org/1999/xlink">
    <!-- Generator: Sketch 51.1 (57501) - http://www.bohemiancoding.com/sketch -->
    <title>agro</title>
    <desc>Created with Sketch.</desc>
    <defs></defs>
    <g id="Page-1" stroke="none" stroke-width="1" fill="none" fill-rule="evenodd">
        <g id="Artboard" transform="translate(-1075.000000, -1672.000000)" fill="#2C6149" fill-rule="nonzero">
            <path d="M1113.6,1703.7 L1113.6,1703.8 C1113.5,1704 1113.5,1704.1 1113.4,1704.3 C1113.3,1705.2 1113.3,1706 1113.2,1706.9 C1112.9,1709.8 1112.1,1712.6 1110.6,1715.1 C1108.1,1719.4 1104.3,1721.8 1099.4,1722.5 C1098.3,1722.7 1097.2,1722.7 1096.1,1722.8 L1096.1,1727.9 L1092.3,1727.9 C1092.3,1726.4 1092.3,1724.8 1092.4,1723.3 C1092.4,1722.8 1092.3,1722.7 1091.8,1722.7 C1090.5,1722.6 1089.2,1722.5 1087.9,1722.3 C1082.2,1721.1 1078.5,1717.6 1076.5,1712.1 C1075.6,1709.8 1075.3,1707.3 1075.1,1704.9 C1075,1703.7 1075,1703.7 1076.2,1703.6 C1076.3,1703.6 1076.4,1703.6 1076.5,1703.6 C1077.2,1703.5 1078,1703.5 1078.9,1703.4 C1077.6,1701.4 1076.7,1699.4 1076.1,1697.3 C1075.5,1695.1 1075.2,1692.9 1075.1,1690.6 C1079.3,1689.9 1083.3,1690.4 1087.3,1692 C1085.7,1683.9 1089.1,1678 1094.7,1672.9 C1096.8,1674.8 1099.6,1678.7 1100.7,1681.4 C1102,1684.6 1102.4,1688 1101.6,1691.4 C1101.6,1691.5 1101.6,1691.7 1101.6,1691.9 C1101.9,1691.8 1102.2,1691.7 1102.4,1691.6 C1105.1,1690.6 1107.9,1690.2 1110.8,1690.3 C1111.8,1690.3 1112.9,1690.4 1113.9,1690.5 L1113.9,1690.6 C1113.8,1690.7 1113.8,1690.9 1113.7,1691 C1113.6,1691.9 1113.6,1692.7 1113.5,1693.6 C1113.1,1696.9 1112.2,1700 1110.3,1702.8 C1110.2,1703 1110.1,1703.1 1110,1703.4 C1110.9,1703.5 1111.6,1703.5 1112.4,1703.6 C1112.7,1703.6 1113.2,1703.7 1113.6,1703.7 M1094.3,1696.8 C1099.5,1691.5 1099.4,1684.1 1094.4,1678.3 C1092.1,1681 1090.6,1684 1090.5,1687.6 C1090.3,1691.2 1091.8,1694.2 1094.3,1696.8 M1079,1693.9 C1079.2,1694.9 1079.4,1695.7 1079.6,1696.6 C1080.5,1699.9 1082.2,1702.6 1085.2,1704.3 C1086.9,1705.3 1088.8,1705.7 1090.8,1705.8 C1092.3,1705.9 1092.3,1706 1092.1,1704.5 C1091.5,1699.8 1089,1696.5 1084.5,1694.9 C1082.8,1694.3 1081,1694 1079,1693.9 M1109.4,1693.9 C1109.1,1693.9 1108.9,1693.9 1108.7,1693.9 C1107.9,1694 1107,1694.1 1106.2,1694.2 C1100.4,1695.2 1096.8,1699.1 1096.2,1705 C1096.1,1705.7 1096.2,1705.8 1096.9,1705.8 C1097.2,1705.8 1097.5,1705.7 1097.8,1705.7 C1102.6,1705.4 1106,1703.1 1108,1698.7 C1108.8,1697.3 1109.2,1695.7 1109.4,1693.9 M1079.1,1707.2 C1079.1,1707.4 1079.1,1707.6 1079.1,1707.8 C1079.3,1708.7 1079.5,1709.7 1079.8,1710.6 C1081.7,1716.3 1085.9,1718.8 1091,1719 C1092.3,1719.1 1092.3,1719.3 1092.1,1717.7 C1091.3,1710 1084.9,1707.2 1079.1,1707.2 M1109.5,1707.2 C1109.3,1707.2 1109.1,1707.2 1109,1707.2 C1107,1707.2 1105,1707.6 1103.1,1708.4 C1098.7,1710.3 1096.7,1713.9 1096.3,1718.5 C1096.3,1718.9 1096.4,1719.1 1096.8,1719 C1097.4,1719 1098,1718.9 1098.6,1718.9 C1102.4,1718.5 1105.3,1716.8 1107.3,1713.5 C1108.5,1711.6 1109.1,1709.5 1109.5,1707.2" id="agro"></path>
        </g>
    </g>
</svg>