<?xml version="1.0" encoding="UTF-8"?>
<svg width="294px" height="34px" viewBox="0 0 294 34" version="1.1" xmlns="http://www.w3.org/2000/svg" xmlns:xlink="http://www.w3.org/1999/xlink">
    <!-- Generator: Sketch 51.1 (57501) - http://www.bohemiancoding.com/sketch -->
    <title>Group</title>
    <desc>Created with Sketch.</desc>
    <defs></defs>
    <g id="Page-1" stroke="none" stroke-width="1" fill="none" fill-rule="evenodd">
        <g id="Artboard" transform="translate(-61.000000, -93.000000)" fill-rule="nonzero">
            <g id="Group" transform="translate(61.000000, 93.000000)">
                <path d="M47.2,20.6 C47.2,22.1 46.7,23.2 45.8,24.1 C44.9,24.9 43.7,25.4 42.2,25.4 C41.1,25.4 40.3,25.1 39.6,24.6 C39,24.1 38.7,23.4 38.7,22.5 C38.7,20.8 40,19.9 42.6,19.6 C44,19.5 45,19.3 45.6,19.1 C46.2,18.9 46.7,18.6 47.2,18.1 L47.2,20.6 Z M51.3,25.5 C51,25.4 50.7,25.4 50.4,25.2 C50.1,25 50,24.6 50,24.3 C50,24.1 49.9,23.4 49.9,22.3 L49.9,15.2 C49.9,11.2 47.8,9.2 43.6,9.2 C41.8,9.2 40.2,9.7 39,10.6 C38.4,11 38,11.4 37.7,11.9 C37.4,12.4 38,13.1 38.4,13.2 C39.2,13.4 40,12.7 40.6,12.3 C41.5,11.7 42.5,11.4 43.6,11.4 C44.8,11.4 45.7,11.7 46.3,12.2 C47,12.7 47.3,13.5 47.3,14.4 C47.3,15.4 47,16.1 46.4,16.4 C45.8,16.8 44.6,17.1 42.6,17.3 C41.2,17.5 40.3,17.6 39.9,17.7 C39.5,17.8 38.9,18 38.3,18.4 C36.7,19.3 35.9,20.7 35.9,22.6 C35.9,24.1 36.5,25.4 37.6,26.3 C38.7,27.2 40.2,27.7 42.1,27.7 C44.6,27.7 46.4,27 47.6,25.2 C47.6,25.3 47.8,25.7 47.8,25.7 C47.9,25.9 48,26 48,26.2 C48.3,26.7 48.8,27.1 49.4,27.3 C49.8,27.5 50.5,27.7 51,27.6 C51.3,27.6 51.5,27.5 51.7,27.3 C51.8,27.1 51.9,26.9 52,26.6 C52,26 51.8,25.7 51.3,25.5 Z" id="Shape" fill="#35AC57"></path>
                <path d="M107,20.6 C107,22.1 106.5,23.2 105.6,24.1 C104.7,24.9 103.5,25.4 102,25.4 C100.9,25.4 100.1,25.2 99.4,24.6 C98.8,24.1 98.5,23.4 98.5,22.5 C98.5,20.8 99.8,19.9 102.4,19.6 C103.8,19.5 104.8,19.3 105.4,19.1 C106,18.9 106.5,18.6 107,18.1 L107,20.6 Z M111.1,25.5 C110.8,25.4 110.5,25.4 110.2,25.2 C109.9,25 109.8,24.6 109.8,24.3 C109.8,24.1 109.7,23.4 109.7,22.3 L109.7,15.3 C109.7,11.3 107.6,9.3 103.4,9.3 C101.6,9.3 100,9.8 98.8,10.7 C98.2,11.1 97.8,11.5 97.5,12 C97.2,12.5 97.8,13.2 98.2,13.3 C99,13.5 99.8,12.8 100.4,12.4 C101.3,11.8 102.3,11.5 103.4,11.5 C104.6,11.5 105.5,11.8 106.1,12.3 C106.8,12.8 107.1,13.6 107.1,14.5 C107.1,15.5 106.8,16.2 106.2,16.5 C105.6,16.9 104.4,17.2 102.4,17.4 C101,17.6 100.1,17.7 99.7,17.8 C99.3,17.9 98.7,18.1 98.1,18.5 C96.5,19.4 95.7,20.8 95.7,22.7 C95.7,24.2 96.3,25.5 97.4,26.4 C98.5,27.3 100,27.8 101.9,27.8 C104.4,27.8 106.2,27 107.4,25.3 C107.4,25.4 107.6,25.8 107.6,25.8 C107.7,26 107.8,26.1 107.8,26.3 C108.1,26.8 108.6,27.2 109.2,27.4 C109.6,27.6 110.3,27.8 110.8,27.7 C111.1,27.7 111.3,27.6 111.5,27.4 C111.6,27.2 111.7,27 111.8,26.7 C111.8,26 111.6,25.6 111.1,25.5 Z" id="Shape" fill="#00804C"></path>
                <path d="M139,20.6 C139,22.1 138.5,23.2 137.6,24.1 C136.7,24.9 135.5,25.4 134,25.4 C132.9,25.4 132.1,25.1 131.4,24.6 C130.8,24.1 130.5,23.4 130.5,22.5 C130.5,20.8 131.8,19.9 134.4,19.6 C135.8,19.5 136.8,19.3 137.4,19.1 C138,18.9 138.5,18.6 139,18.1 L139,20.6 Z M143.1,25.4 C142.8,25.3 142.5,25.3 142.2,25.1 C141.9,24.9 141.8,24.5 141.8,24.2 C141.8,24 141.7,23.3 141.7,22.2 L141.7,15.2 C141.7,11.2 139.6,9.2 135.4,9.2 C133.6,9.2 132,9.7 130.8,10.6 C130.2,11 129.8,11.4 129.5,11.9 C129.2,12.4 129.8,13.1 130.2,13.2 C131,13.4 131.8,12.7 132.4,12.3 C133.3,11.7 134.3,11.4 135.4,11.4 C136.6,11.4 137.5,11.7 138.1,12.2 C138.8,12.7 139.1,13.5 139.1,14.4 C139.1,15.4 138.8,16.1 138.2,16.4 C137.6,16.8 136.4,17.1 134.4,17.3 C133,17.5 132.1,17.6 131.7,17.7 C131.3,17.8 130.7,18 130.1,18.4 C128.5,19.3 127.7,20.7 127.7,22.6 C127.7,24.1 128.3,25.4 129.4,26.3 C130.5,27.2 132,27.7 133.9,27.7 C136.4,27.7 138.2,26.9 139.4,25.2 C139.4,25.3 139.6,25.7 139.6,25.7 C139.7,25.9 139.7,26 139.8,26.2 C140.1,26.7 140.6,27.1 141.2,27.3 C141.6,27.5 142.3,27.7 142.8,27.6 C143.1,27.6 143.3,27.5 143.5,27.3 C143.6,27.1 143.7,26.9 143.8,26.6 C143.8,26 143.6,25.6 143.1,25.4 Z" id="Shape" fill="#006A4D"></path>
                <path d="M62.2,25.4 C62,25.4 61.9,25.4 61.7,25.4 C61.3,25.5 60.6,25.5 60.3,25.1 C59.9,24.7 59.9,24 59.9,23.6 L59.9,12.9 C59.9,11.4 59.9,9.1 60,7.6 C60,6.8 59.9,5.9 59.6,5.2 C59.2,4.4 58.5,3.9 57.6,3.7 C56.6,3.5 55.6,3.5 54.6,3.6 C54,3.6 53.4,3.6 52.7,3.7 C51.9,3.7 50.9,3.7 50.8,4.7 C50.7,5.2 51.2,5.7 51.7,5.8 C52.3,6 53,5.9 53.7,5.8 C54.4,5.8 55.1,5.7 55.8,5.8 C56.3,5.8 56.8,5.9 57,6.4 C57.2,6.8 57.2,7.3 57.2,7.7 L57.2,19.6 L57.2,22 C57.2,23.5 57.1,24.4 57,24.8 C56.5,26.4 53.5,24.2 53.5,26.4 C53.5,27.1 53.9,27.5 54.5,27.5 C56,27.6 61.7,27.6 62.2,27.5 C62.6,27.5 62.9,27.5 63.2,27.2 C63.3,27 63.4,26.7 63.4,26.5 C63.4,25.7 62.9,25.5 62.2,25.4" id="Shape" fill="#209A51"></path>
                <path d="M94.6,25.4 C94.4,25.4 94.3,25.4 94.1,25.4 C93.7,25.4 93.1,25.5 92.8,25.2 C92.6,25 92.5,24.7 92.5,24.4 L92.5,19.9 L92.5,16.1 C92.5,15.6 92.5,15.1 92.4,14.6 L92.4,14.2 C92.3,13.5 92.2,12.9 92,12.5 C91.6,11.4 90.8,10.5 89.6,9.9 C88.6,9.3 87.4,9.1 86.1,9.1 C84.8,9.1 83.8,9.3 83,9.7 C82.2,10.1 81.4,10.8 80.6,11.7 C79.5,10 77.9,9.1 75.6,9.1 C74.5,9.1 73.6,9.3 72.8,9.7 C72.2,10 71.5,10.6 70.8,11.3 C70.3,9.7 69.4,9.4 69.1,9.3 C68.3,9.2 67.5,9.1 66.6,9.2 C66.1,9.2 65.3,9.2 65,9.6 C64.8,9.9 64.8,10.7 65.2,11 C66.1,11.5 67,10.9 67.9,11.4 C68.1,11.5 68.2,11.8 68.3,12 C68.3,12.2 68.4,12.5 68.4,13.1 L68.4,19.9 L68.4,22.2 C68.4,23.6 68.3,24.5 68.2,24.8 C67.8,26.3 64.9,24.3 64.9,26.3 C64.9,26.9 65.3,27.4 65.9,27.5 C67.3,27.7 72.5,27.6 72.9,27.6 C73.2,27.6 73.7,27.4 73.9,27.1 C74,26.9 74.1,26.7 74.1,26.5 C74.1,25.7 73.6,25.5 73,25.4 C72.8,25.4 72.7,25.4 72.5,25.4 C72.1,25.4 71.5,25.4 71.2,25.2 C70.8,24.9 70.8,24.2 70.8,23.8 L70.8,22.6 L70.8,17.7 C70.8,15.5 71.1,13.9 71.8,13 C72.6,11.9 73.8,11.3 75.3,11.3 C76.7,11.3 77.6,11.7 78.2,12.5 C78.7,13.3 79,14.7 79,16.7 L79,25 C78.5,26.4 75.7,24.4 75.7,26.4 C75.7,27 76.1,27.4 76.7,27.5 C78.1,27.7 79.5,27.7 80.9,27.6 C81.4,27.6 81.9,27.6 82.4,27.6 C82.9,27.6 83.3,27.6 83.8,27.6 C84.1,27.6 84.6,27.5 84.8,27.2 C84.9,27 85,26.8 85,26.5 C85,25.7 84.5,25.5 83.9,25.4 C83.7,25.4 83.6,25.4 83.4,25.4 C83,25.4 82.4,25.5 82.1,25.2 C81.7,24.9 81.7,24.2 81.7,23.8 L81.7,15.6 C81.8,14.5 82,13.6 82.4,13 C83,11.9 84.2,11.3 85.8,11.3 C86.6,11.3 87.4,11.5 88.1,11.9 C88.8,12.3 89.2,12.9 89.5,13.6 C89.7,14.3 89.9,15.5 89.9,17.1 L89.9,19.8 L89.9,23.9 C89.9,24.4 89.8,24.7 89.8,24.9 C89.4,26.4 86.5,24.4 86.5,26.4 C86.5,27 86.9,27.4 87.5,27.5 C88.9,27.7 90.3,27.7 91.7,27.6 C92.2,27.6 92.7,27.6 93.2,27.6 C93.7,27.6 94.1,27.6 94.6,27.6 C94.9,27.6 95.4,27.5 95.6,27.2 C95.7,27 95.8,26.8 95.8,26.5 C95.7,25.7 95.2,25.4 94.6,25.4" id="Shape" fill="#078C4F"></path>
                <path d="M113.8,11.6 C112.4,13.2 111.7,15.4 111.6,18.1 L111.6,18.5 C111.6,21.2 112.3,23.3 113.8,25 C115.2,26.7 117.1,27.5 119.5,27.5 C121.1,27.5 122.6,27.1 123.8,26.2 C124.9,25.4 126.2,24.1 126.2,22.7 C126.2,22.3 126.1,22 125.8,21.7 C125.5,21.4 125.2,21.3 124.8,21.3 C124.3,21.3 123.9,21.5 123.7,22 C123,23.8 121.5,25.2 119.5,25.2 C117.9,25.2 116.6,24.6 115.7,23.4 C114.8,22.2 114.3,20.5 114.3,18.3 C114.3,16.1 114.8,14.5 115.7,13.2 C116.6,12 117.9,11.4 119.5,11.4 C121.6,11.4 123,12.8 123.7,14.6 C124,15.1 124.3,15.3 124.8,15.3 C125.2,15.3 125.5,15.2 125.8,14.9 C126.1,14.6 126.2,14.3 126.2,13.9 C126.2,12.4 124.9,11.2 123.8,10.4 C122.5,9.5 121,9.1 119.5,9.1 C117.1,9.2 115.2,10 113.8,11.6" id="Shape" fill="#00724C"></path>
                <path d="M154.8,10.3 L152.1,10.3 C151.8,10.3 151.7,10.2 151.7,9.9 L151.7,9.2 C151.7,8.1 152,7.3 152.5,6.7 C153.1,6.1 153.8,5.8 154.8,5.8 C155.4,5.8 156,5.9 156.4,6.3 C156.9,6.7 157.2,7.1 157.9,7.2 C158.3,7.3 158.8,7.2 159.1,6.9 C159.5,6.5 159.3,5.9 159,5.5 C158.8,5.2 158.5,4.9 158.2,4.7 C157.3,4.1 156.2,3.8 154.7,3.8 C152.9,3.8 151.6,4.3 150.6,5.2 C149.6,6.1 149.2,7.4 149.2,9.3 L149.2,10 C149.2,10.3 149,10.4 148.8,10.4 L146.8,10.4 C146,10.4 145.6,10.8 145.6,11.6 C145.6,12.5 146,12.9 146.8,12.9 L148.5,12.9 C148.9,12.9 149.1,13.1 149.1,13.5 L149.1,20.6 C149.1,22.7 149.1,24 149,24.5 L148.9,24.9 C148.4,26.5 145.4,24.3 145.4,26.5 C145.4,27.2 145.8,27.4 146.4,27.5 C147.8,27.7 153.5,27.7 154,27.6 C154.4,27.6 154.9,27.6 155.1,27.3 C155.2,27.1 155.3,26.8 155.3,26.6 C155.3,25.8 154.8,25.5 154.1,25.5 C153.9,25.5 153.8,25.5 153.6,25.5 C153.2,25.5 152.5,25.6 152.2,25.2 C151.8,24.8 151.8,24.1 151.8,23.7 L151.8,13.2 C151.9,13 152.1,12.9 152.3,12.9 L154.9,12.9 C155.7,12.9 156,12.5 156,11.7 C155.9,10.7 155.6,10.3 154.8,10.3" id="Shape" fill="#0F614D"></path>
                <path d="M168.2,16.4 L160.3,16.4 C159.8,16.4 159.6,16.2 159.6,15.9 C159.6,14.8 160.1,13.7 161.1,12.8 C162.1,11.9 163.2,11.4 164.5,11.4 C165.7,11.4 166.7,11.8 167.6,12.7 C168.5,13.6 168.9,14.7 168.9,15.9 C168.9,16.3 168.7,16.4 168.2,16.4 M169.5,11.3 C168.2,9.9 166.5,9.1 164.4,9.1 C162.1,9.1 160.2,10 158.7,11.7 C157.3,13.3 156.6,15.5 156.5,18 L156.5,18.4 C156.5,21.1 157.2,23.2 158.7,24.8 C160.1,26.5 162,27.3 164.4,27.3 C166,27.3 167.5,26.9 168.7,26 C169.8,25.2 171.1,23.9 171.1,22.5 C171.1,22.1 171,21.8 170.7,21.5 C170.4,21.2 170.1,21.1 169.7,21.1 C169.2,21.1 168.8,21.3 168.6,21.8 C167.9,23.6 166.4,25 164.4,25 C162.8,25 161.5,24.4 160.6,23.2 C159.8,22.1 159.3,20.5 159.2,18.6 C159.3,18.5 159.5,18.5 159.8,18.5 L170.3,18.5 C170.8,18.5 171.1,18.4 171.3,18.2 C171.4,18 171.5,17.5 171.5,16.6 C171.6,14.6 170.9,12.8 169.5,11.3" id="Shape" fill="#265549"></path>
                <path d="M25.6,21.3 C24.9,22.6 23.6,23.4 22.8,24.7 C22,25.9 21.4,27.2 20.2,28 C19.1,28.6 16.2,31.1 15.2,30.6 C14.4,30.2 14.2,28.3 14.2,27.5 C14.2,26.5 13.8,26 13.7,25.1 C13.5,23.6 13.1,21.8 13.3,20.2 C13.4,18.8 14.3,17.9 15,16.7 C15.6,15.7 15.6,14.5 16.2,13.5 C17.2,11.8 19.6,11.5 20.5,9.8 C20.8,9.3 20.6,8.5 21.4,8.5 L21.8,8.2 C22.5,8 23.7,10.2 24.2,10.7 C25.2,11.6 26.4,12.6 26.9,13.9 C27.3,15.2 26.5,16.4 26.2,17.7 C25.8,18.8 26.2,20.1 25.6,21.3 M10.9,29.3 C9.4,28.8 8.2,28.6 7.1,27.4 C6.9,27.2 6.8,26.9 6.7,26.7 C6.4,26.2 6.2,26.1 5.7,25.8 C4.6,24.9 5.1,21.7 4.7,20.3 C4.4,19.1 3.7,18.3 4.1,16.9 C4.5,15.6 4.4,14.2 5,13 C5.2,12.5 5.6,12.2 6,11.8 C6.5,11.2 6.2,11.3 6.4,10.7 C6.9,9.1 9.5,7.4 10.9,6.6 C11.9,6.1 12.8,5.9 13.9,6.1 C14.6,6.2 17.3,5.9 16.7,7 L14.8,8.2 C14.3,8.7 14.1,9.4 13.5,9.7 C13,10 12.9,10.2 12.6,10.7 C12.2,11.2 12,11.5 11.9,12 C11.8,12.8 11.1,13.4 10.8,14.2 C10.6,15 10.6,15.8 10.3,16.6 C10,17.7 9.6,18.3 9.7,19.5 C9.7,20 9.7,20.5 9.9,21 C10.1,21.6 10.6,21.9 10.8,22.5 C11,23.2 10.6,24.1 10.8,24.8 C11.1,26 11.6,27.2 12,28.4 C12.2,29.5 12.2,29.7 10.9,29.3 M31,12.2 C31.1,10.4 31.5,8.6 31.2,6.9 C30.8,4.9 31.6,2.1 29.6,0.8 C28.7,0.2 27.5,0.6 26.5,0.6 C24.4,0.6 22.2,0.2 20.1,0.5 C18.9,0.7 17.7,0.7 16.5,0.8 C15.8,0.9 14.8,1.3 14.1,1.7 C14,1.7 14,1.7 13.9,1.7 C13,1.7 12.6,1.8 11.8,2.2 C11.1,2.6 10.6,2.9 9.9,3.1 C9.3,3.2 8.6,3.2 8,3.6 C7.3,4.1 6.9,5 6.5,5.7 C6,6.5 5.3,6.9 4.7,7.6 C4.1,8.2 3.8,8.9 3.4,9.6 C2.9,10.4 2.6,10 2.4,11 C2.1,12.3 2,13.6 1.5,14.9 C1.1,16 0.9,17 0.7,18.1 C0.4,19.7 1,20.5 1,22 C1,22.5 1.1,23 1.3,23.4 C1.8,24.7 2.8,25.6 3.5,26.7 C3.8,27.1 3.7,27.3 3.9,27.8 C4.1,28.4 4.5,29 4.9,29.5 C5.6,30.3 6.6,30.6 7.3,31.3 C7.9,32 8.4,32.8 9.4,33 C12.6,33.6 16.9,33.4 20,31.7 C20.7,31.3 21.6,31.4 22.3,30.9 C22.7,30.5 22.9,30.2 23.4,29.9 C23.8,29.7 24.4,29.7 24.8,29.5 C25.7,29.2 26.4,28.6 26.8,27.7 C27,27.3 27,26.9 27.3,26.5 C27.6,26.1 28.1,25.9 28.3,25.5 C28.7,24.9 28.9,24.2 29.1,23.5 C29.4,22.6 29.5,21.6 29.7,20.6 C30.1,20.6 31.6,17.6 31.6,17 C31.7,15.5 30.9,13.9 31,12.2" id="Shape" fill="#56BA60"></path>
                <path d="M171.1,4.8 C170.9,4.5 170.6,4.3 170.3,4.2 L169.9,4.1 C169.9,4.1 169.9,4.1 169.9,4.1 L169.8,4.1 C169.7,4.1 169.6,4.1 169.4,4.1 C169.2,4.1 169,4.1 168.8,4.1 C168.7,4.1 168.6,4.1 168.5,4.1 C168.4,4.1 168.3,4.1 168.1,4.1 C168,4.1 167.8,4.1 167.7,4.2 C167.6,4.2 167.4,4.2 167.3,4.3 C167.1,4.4 166.8,4.4 166.5,4.5 C166.3,4.6 166,4.7 165.7,4.8 C164.6,5.3 163.8,5.7 163.1,6.1 C162.5,6.5 162.1,6.9 162.1,7 C162.1,7 162.1,7 162.1,7 C162,7.1 162,7.3 162,7.4 C162.1,7.5 162.2,7.6 162.4,7.6 C162.4,7.6 162.5,7.6 162.5,7.6 C162.5,7.6 162.6,7.5 162.8,7.4 C164.3,6.5 167,6.3 167.5,6.3 C168.7,6.3 169.5,6.8 169.5,6.8 C169.6,6.8 169.7,6.9 169.8,6.9 C169.9,6.9 170.1,6.9 170.2,6.9 C170.7,6.8 171.2,6.4 171.3,5.9 C171.4,5.4 171.3,5 171.1,4.8" id="Shape" fill="#265549"></path>
                <path d="M175.1,25.6 C175.1,25.7 175.1,25.8 175,25.9 C174.9,25.9 174.8,26 174.6,26 L174.3,26 C174.3,26 174.3,26 174.3,26 C174.3,26 174.3,26 174.3,26 L174.3,25.6 C174.3,25.5 174.3,25.5 174.4,25.5 C174.4,25.5 174.5,25.5 174.7,25.5 C174.9,25.3 175.1,25.4 175.1,25.6 M175.5,26.8 C175.4,26.8 175.4,26.8 175.4,26.8 C175.4,26.8 175.3,26.8 175.3,26.6 L175.3,26.4 C175.3,26.2 175.3,26.1 175.2,26.1 C175.2,26.1 175.1,26 175.1,26 C175.1,26 175.2,26 175.2,26 C175.4,25.9 175.4,25.8 175.4,25.6 C175.4,25.2 175.2,25.1 174.7,25.1 C174.6,25.1 174.6,25.1 174.5,25.1 L174.3,25.1 C174.2,25.1 174,25.1 174,25.1 L173.8,25.1 C173.8,25.1 173.8,25.1 173.8,25.1 C173.7,25.1 173.6,25.2 173.6,25.2 C173.6,25.2 173.6,25.3 173.6,25.3 C173.6,25.3 173.7,25.3 173.7,25.3 C173.7,25.3 173.7,25.3 173.8,25.3 C173.8,25.3 173.9,25.3 173.9,25.3 C173.9,25.3 174,25.3 174,25.5 L174,26.7 C174,26.9 173.9,26.9 173.9,26.9 C173.9,26.9 173.9,26.9 173.8,26.9 C173.8,26.9 173.7,26.9 173.7,26.9 C173.6,26.9 173.6,26.9 173.6,27 C173.6,27.1 173.6,27.1 173.7,27.1 C173.7,27.1 173.7,27.1 173.7,27.1 L173.8,27.1 C173.9,27.1 173.9,27.1 174,27.1 C174,27.1 174.1,27.1 174.2,27.1 L174.4,27.1 C174.5,27.1 174.6,27 174.6,27 C174.6,26.9 174.6,26.9 174.5,26.9 C174.5,26.9 174.5,26.9 174.4,26.9 C174.4,26.9 174.4,26.9 174.3,26.9 C174.3,26.9 174.2,26.9 174.2,26.8 C174.2,26.8 174.2,26.8 174.2,26.6 L174.2,26.4 C174.2,26.3 174.2,26.3 174.3,26.3 L174.6,26.3 C174.8,26.3 174.9,26.3 174.9,26.4 C174.9,26.4 175,26.5 175,26.6 L175,26.9 C175,27.2 175.1,27.3 175.4,27.3 C175.6,27.3 175.7,27.3 175.7,27.2 C175.7,27.1 175.7,27.1 175.7,27.1 C175.6,26.8 175.6,26.8 175.5,26.8" id="Shape" fill="#265549"></path>
                <path d="M174.6,27.6 C173.8,27.6 173.1,26.9 173.1,26.1 C173.1,25.3 173.8,24.6 174.6,24.6 C175.4,24.6 176.1,25.3 176.1,26.1 C176.1,26.9 175.5,27.6 174.6,27.6 M174.6,24.2 C173.6,24.2 172.8,25 172.8,26 C172.8,27 173.6,27.8 174.6,27.8 C175.6,27.8 176.4,27 176.4,26 C176.4,25.1 175.6,24.2 174.6,24.2" id="Shape" fill="#265549"></path>
                <path d="M189.8,17.4 C189.8,18.5 188.9,19.5 187.7,19.5 C186.6,19.5 185.6,18.6 185.6,17.4 C185.6,16.3 186.5,15.3 187.7,15.3 C188.9,15.4 189.8,16.3 189.8,17.4" id="Shape" fill="#0F614D"></path>
                <path d="M207,20.6 L207,21.3 C207.7,20.5 208.5,20.1 209.4,20.1 C210.3,20.1 211,20.5 211.4,21.2 C211.6,21.6 211.7,22.1 211.7,22.9 L211.7,24.9 C211.7,25.4 211.8,25.6 212,25.6 C212,25.6 212.1,25.6 212.2,25.5 C212.2,25.5 212.3,25.5 212.4,25.5 C212.8,25.5 213,25.7 213,26.2 C213,26.8 212.7,27.2 212.2,27.2 C212.1,27.2 211.8,27.2 211.5,27.1 C211.2,27.1 211,27 210.8,27 C210.6,27 210.3,27 210.1,27.1 C209.8,27.1 209.6,27.2 209.5,27.2 C209,27.2 208.7,26.9 208.7,26.4 C208.7,25.9 208.9,25.7 209.3,25.6 C209.5,25.6 209.7,25.5 209.7,25.3 L209.7,23.4 C209.7,22.9 209.6,22.5 209.5,22.3 C209.4,22.1 209.1,22 208.8,22 C208.4,22 208.1,22.1 207.9,22.4 C207.7,22.7 207.5,23 207.5,23.4 L207.5,24.8 C207.5,25.2 207.5,25.5 207.6,25.5 C207.6,25.6 207.7,25.6 207.9,25.7 C208.2,25.7 208.4,26 208.4,26.4 C208.4,27 208.2,27.3 207.7,27.3 C207.6,27.3 207.4,27.3 207.2,27.3 C206.9,27.3 206.6,27.2 206.4,27.2 C206.2,27.2 206,27.2 205.7,27.3 C205.4,27.3 205.1,27.4 205,27.4 C204.4,27.4 204.1,27.1 204.1,26.5 C204.1,26 204.3,25.7 204.8,25.7 C204.9,25.7 205,25.7 205,25.7 C205.1,25.7 205.2,25.7 205.2,25.7 C205.4,25.7 205.4,25.4 205.4,24.9 L205.4,22.7 C205.4,22.2 205.3,21.9 205.2,21.9 C205.2,21.9 205.1,21.9 205,21.9 C204.9,21.9 204.8,21.9 204.8,21.9 C204.4,21.9 204.1,21.7 204.1,21.1 C204.1,20.8 204.2,20.6 204.3,20.4 C204.4,20.2 204.6,20.1 204.9,20.1 C205,20.1 205.1,20.1 205.4,20.2 C205.5,20.2 205.7,20.2 205.8,20.2 C205.9,20.2 206.1,20.2 206.4,20.1 C206.7,20.1 206.8,20 206.8,20 C206.8,20.2 207,20.4 207,20.6" id="Shape" fill="#0F614D"></path>
                <path d="M218.6,26.7 L218.6,26.2 C218,27 217.2,27.3 216.2,27.3 C215.8,27.3 215.4,27.2 215.1,27 C214.8,26.8 214.5,26.6 214.4,26.3 C214.2,26 214.2,25.4 214.2,24.6 L214.2,22.5 C214.2,22.2 214.2,22 214.1,21.9 C214.1,21.8 214,21.8 213.9,21.8 L213.8,21.8 L213.7,21.8 C213.3,21.8 213.1,21.6 213.1,21.1 C213.1,20.5 213.4,20.2 213.9,20.2 C214,20.2 214.2,20.2 214.4,20.3 C214.6,20.3 214.8,20.4 214.9,20.4 C215,20.4 215.2,20.4 215.4,20.3 C215.6,20.3 215.8,20.2 215.9,20.2 C216.2,20.2 216.3,20.4 216.3,20.8 L216.3,24.4 C216.3,25.1 216.6,25.5 217.2,25.5 C218,25.5 218.4,24.9 218.4,23.8 L218.4,22.5 C218.4,22 218.3,21.8 218.1,21.8 C218,21.8 218,21.8 217.9,21.8 C217.8,21.8 217.7,21.8 217.7,21.8 C217.4,21.8 217.2,21.6 217.2,21.1 C217.2,20.5 217.5,20.2 218,20.2 C218.1,20.2 218.3,20.2 218.6,20.3 C218.8,20.3 219,20.4 219.1,20.4 C219.1,20.4 219.3,20.4 219.7,20.3 C219.9,20.3 220.1,20.3 220.2,20.3 C220.5,20.3 220.6,20.5 220.6,20.8 L220.6,24.9 C220.6,25.4 220.7,25.6 220.9,25.6 C221,25.6 221,25.6 221.1,25.6 C221.2,25.6 221.2,25.6 221.3,25.6 C221.7,25.6 221.9,25.8 221.9,26.3 C221.9,26.9 221.6,27.2 221.1,27.2 C221,27.2 220.8,27.2 220.6,27.1 C220.4,27.1 220.2,27 220.1,27 C220,27 219.9,27 219.7,27.1 C219.5,27.1 219.4,27.2 219.3,27.2 C218.7,27.1 218.6,27 218.6,26.7" id="Shape" fill="#0F614D"></path>
                <path d="M228.7,23.1 C228.7,23.5 228.7,23.7 228.6,23.9 C228.5,24 228.3,24.1 228,24.1 L224.7,24.1 C224.5,24.1 224.4,24.1 224.4,24.1 C224.4,24.1 224.3,24.2 224.3,24.3 C224.3,24.7 224.4,25 224.7,25.3 C224.9,25.6 225.3,25.7 225.6,25.7 C226,25.7 226.4,25.5 226.8,25.1 C227.1,24.8 227.4,24.7 227.7,24.7 C228,24.7 228.2,24.8 228.4,24.9 C228.6,25.1 228.7,25.2 228.7,25.5 C228.7,26 228.4,26.5 227.8,26.8 C227.2,27.2 226.5,27.4 225.7,27.4 C224.6,27.4 223.8,27.1 223.1,26.4 C222.5,25.7 222.1,24.9 222.1,23.8 C222.1,22.7 222.4,21.8 223.1,21.1 C223.7,20.4 224.6,20.1 225.6,20.1 C226.6,20.1 227.3,20.4 227.9,20.9 C228.4,21.4 228.7,22.2 228.7,23.1 M224.3,22.4 C224.3,22.5 224.3,22.5 224.3,22.5 C224.3,22.5 224.4,22.6 224.6,22.6 L226.1,22.6 C226.2,22.6 226.3,22.6 226.4,22.6 C226.4,22.6 226.4,22.5 226.4,22.4 C226.4,22.2 226.3,22 226.1,21.8 C225.9,21.6 225.6,21.5 225.4,21.5 C225,21.5 224.7,21.6 224.5,21.9 C224.4,22.1 224.3,22.3 224.3,22.4" id="Shape" fill="#0F614D"></path>
                <path d="M232.2,20 C232.9,20 233.5,20.2 234,20.6 C234,20.2 234.3,20 234.7,20 C235.2,20 235.4,20.2 235.4,20.5 C235.4,20.6 235.4,20.7 235.3,20.9 C235.3,21.1 235.3,21.2 235.3,21.4 C235.3,21.4 235.3,21.5 235.3,21.6 L235.3,21.9 L235.3,22 C235.3,22.5 235.1,22.7 234.6,22.7 C234.3,22.7 234,22.5 233.7,22.2 C233.4,21.8 233,21.6 232.6,21.6 C232.1,21.6 231.8,21.8 231.8,22.1 C231.8,22.3 231.9,22.4 232.1,22.5 C232.3,22.6 232.7,22.7 233.5,22.8 C234.1,22.9 234.5,23 234.8,23.2 C235.1,23.3 235.3,23.5 235.5,23.8 C235.7,24.1 235.8,24.5 235.8,24.9 C235.8,25.6 235.5,26.2 235,26.6 C234.5,27.1 233.8,27.3 233,27.3 C232.2,27.3 231.5,27 230.8,26.5 C230.8,26.9 230.6,27.2 230.1,27.2 C229.6,27.2 229.4,27 229.4,26.6 C229.4,26.5 229.4,26.4 229.4,26.2 C229.4,26 229.4,25.9 229.4,25.8 C229.4,25.7 229.4,25.6 229.4,25.4 C229.4,25.2 229.4,25.1 229.4,25 C229.4,24.6 229.7,24.4 230.2,24.4 C230.4,24.4 230.6,24.4 230.8,24.5 C231,24.6 231.1,24.7 231.2,24.9 C231.4,25.2 231.6,25.5 231.8,25.6 C232,25.7 232.3,25.8 232.6,25.8 C233.3,25.8 233.6,25.6 233.6,25.2 C233.6,24.9 233.3,24.7 232.8,24.6 L232,24.4 C231.4,24.3 230.9,24.1 230.6,24 C230.3,23.9 230.1,23.6 230,23.4 C229.8,23.1 229.8,22.8 229.8,22.4 C229.8,21.7 230,21.2 230.5,20.7 C231,20.2 231.4,20 232.2,20" id="Shape" fill="#0F614D"></path>
                <path d="M239.3,22.1 L239.3,22.7 L239.3,23.5 L239.3,24.4 C239.3,24.7 239.3,24.8 239.3,24.8 C239.3,25.3 239.5,25.6 239.8,25.6 C240.1,25.6 240.3,25.4 240.3,24.9 L240.3,24.7 L240.3,24.5 L240.3,24.4 C240.3,23.9 240.5,23.7 241,23.7 C241.6,23.7 241.9,24.2 241.9,25.1 C241.9,25.8 241.7,26.4 241.3,26.8 C240.9,27.2 240.3,27.4 239.5,27.4 C238,27.4 237.3,26.6 237.3,25 C237.3,24.7 237.3,24.4 237.3,23.9 C237.3,23.4 237.3,23 237.3,22.8 L237.3,22.4 C237.3,22.2 237.3,22 237.2,22 C237.2,21.9 237.1,21.9 236.9,21.9 L236.7,21.9 C236.5,21.9 236.4,21.8 236.3,21.7 C236.2,21.6 236.1,21.4 236.1,21.2 C236.1,21 236.2,20.8 236.3,20.7 C236.4,20.5 236.5,20.5 236.7,20.5 L237,20.5 C237.2,20.5 237.3,20.4 237.4,20.3 C237.4,20.2 237.4,20.1 237.4,19.9 L237.4,19 C237.4,18.7 237.5,18.5 237.7,18.3 C237.9,18.2 238.2,18.1 238.6,18.1 C238.9,18.1 239.1,18.1 239.2,18.2 C239.3,18.3 239.4,18.5 239.4,18.8 L239.4,19.5 C239.4,19.8 239.4,19.9 239.5,20 C239.6,20.1 239.7,20.1 239.9,20.1 L240.9,20.1 C241.4,20.1 241.7,20.3 241.7,20.9 C241.7,21.4 241.5,21.6 241,21.6 L239.9,21.6 C239.7,21.6 239.6,21.6 239.6,21.7 C239.3,21.9 239.3,22 239.3,22.1" id="Shape" fill="#0F614D"></path>
                <path d="M245.2,20.6 L245.2,21.8 C245.3,21.3 245.5,21 245.6,20.8 C246,20.3 246.6,20 247.3,20 C247.8,20 248.2,20.2 248.6,20.5 C248.9,20.8 249.1,21.2 249.1,21.7 C249.1,22.1 249,22.4 248.8,22.6 C248.6,22.8 248.3,23 248,23 C247.7,23 247.5,22.9 247.4,22.8 C247.2,22.6 247.1,22.4 247.1,22.2 C247.1,22.1 247.2,21.9 247.3,21.7 L247.2,21.7 C246.6,21.7 246.2,22 246,22.7 C245.8,23.2 245.8,23.8 245.8,24.5 L245.8,25 C245.8,25.3 245.8,25.5 245.9,25.6 C245.9,25.7 246,25.7 246.1,25.7 C246.2,25.7 246.3,25.7 246.4,25.6 C246.5,25.6 246.7,25.5 246.7,25.5 C246.9,25.5 247.1,25.6 247.2,25.7 C247.3,25.8 247.4,26 247.4,26.2 C247.4,26.5 247.3,26.7 247.1,26.9 C246.9,27.1 246.7,27.2 246.5,27.2 C246.4,27.2 246.1,27.2 245.7,27.1 C245.5,27.1 245.2,27.1 244.8,27.1 C244.5,27.1 244.2,27.1 243.9,27.1 C243.5,27.1 243.2,27.2 243.1,27.2 C242.5,27.2 242.3,26.9 242.3,26.3 C242.3,25.8 242.5,25.5 243,25.5 C243.1,25.5 243.2,25.5 243.2,25.5 C243.3,25.5 243.4,25.5 243.4,25.5 C243.6,25.5 243.6,25.2 243.6,24.7 L243.6,22.5 C243.6,22 243.5,21.7 243.4,21.7 C243.4,21.7 243.3,21.7 243.2,21.7 C243.1,21.7 243,21.7 243,21.7 C242.6,21.7 242.3,21.5 242.3,20.9 C242.3,20.6 242.4,20.4 242.5,20.2 C242.6,20 242.8,19.9 243.1,19.9 C243.2,19.9 243.3,19.9 243.5,20 C243.7,20 243.8,20.1 244,20.1 C244.1,20.1 244.3,20.1 244.5,20 C244.7,20 244.9,19.9 245,19.9 C245,20.2 245.2,20.4 245.2,20.6" id="Shape" fill="#0F614D"></path>
                <path d="M255.4,27.3 C254.7,27.3 254.2,27 253.9,26.4 C253.3,27 252.5,27.3 251.6,27.3 C250.9,27.3 250.3,27.1 249.9,26.7 C249.5,26.3 249.3,25.8 249.3,25.2 C249.3,24.2 249.7,23.6 250.5,23.3 C250.9,23.2 251.3,23.1 251.7,23 C252.3,22.9 252.8,22.8 253,22.6 C253.2,22.5 253.3,22.2 253.3,22 C253.3,21.8 253.2,21.6 253,21.5 C252.8,21.4 252.6,21.3 252.3,21.3 C252,21.3 251.8,21.4 251.8,21.6 L251.8,21.8 L251.8,21.9 C251.8,22.2 251.7,22.4 251.5,22.5 C251.3,22.7 251,22.8 250.7,22.8 C250.3,22.8 250,22.7 249.8,22.5 C249.6,22.3 249.4,22 249.4,21.7 C249.4,21.2 249.7,20.8 250.2,20.5 C250.7,20.2 251.4,20.1 252.3,20.1 C253.3,20.1 254,20.2 254.5,20.5 C255,20.8 255.3,21.4 255.3,22.3 L255.3,25.1 C255.3,25.4 255.4,25.5 255.5,25.5 L255.7,25.5 L255.8,25.5 C256,25.5 256.2,25.6 256.3,25.7 C256.4,25.8 256.5,26 256.5,26.2 C256.5,26.5 256.4,26.7 256.1,26.9 C256.2,27.2 255.8,27.3 255.4,27.3 M253.4,24.4 L253.4,24.1 C253.3,24.1 252.9,24.2 252.2,24.4 C251.7,24.5 251.5,24.7 251.5,25 C251.5,25.4 251.7,25.6 252.2,25.6 C253,25.7 253.4,25.2 253.4,24.4" id="Shape" fill="#0F614D"></path>
                <path d="M266.8,27.3 C266.1,27.3 265.6,27 265.3,26.4 C264.7,27 263.9,27.3 263,27.3 C262.3,27.3 261.7,27.1 261.3,26.7 C260.9,26.3 260.7,25.8 260.7,25.2 C260.7,24.2 261.1,23.6 261.9,23.3 C262.3,23.2 262.7,23.1 263.1,23 C263.7,22.9 264.2,22.8 264.4,22.6 C264.6,22.5 264.7,22.2 264.7,22 C264.7,21.8 264.6,21.6 264.4,21.5 C264.2,21.4 264,21.3 263.7,21.3 C263.4,21.3 263.2,21.4 263.2,21.6 L263.2,21.8 L263.2,21.9 C263.2,22.2 263.1,22.4 262.9,22.5 C262.7,22.7 262.4,22.8 262.1,22.8 C261.7,22.8 261.4,22.7 261.2,22.5 C261,22.3 260.8,22 260.8,21.7 C260.8,21.2 261.1,20.8 261.6,20.5 C262.1,20.2 262.8,20.1 263.7,20.1 C264.7,20.1 265.4,20.2 265.9,20.5 C266.4,20.8 266.7,21.4 266.7,22.3 L266.7,25.1 C266.7,25.4 266.8,25.5 266.9,25.5 L267.1,25.5 L267.2,25.5 C267.4,25.5 267.6,25.6 267.7,25.7 C267.8,25.8 267.9,26 267.9,26.2 C267.9,26.5 267.8,26.7 267.5,26.9 C267.5,27.2 267.2,27.3 266.8,27.3 M264.8,24.4 L264.8,24.1 C264.7,24.1 264.3,24.2 263.6,24.4 C263.1,24.5 262.9,24.7 262.9,25 C262.9,25.4 263.1,25.6 263.6,25.6 C264.4,25.7 264.8,25.2 264.8,24.4" id="Shape" fill="#0F614D"></path>
                <path d="M271.4,17.9 C271.7,17.9 271.8,18.1 271.8,18.4 L271.8,24.9 C271.8,25.4 271.9,25.6 272.1,25.6 C272.2,25.6 272.2,25.6 272.3,25.6 C272.4,25.6 272.4,25.6 272.5,25.6 C272.9,25.6 273.1,25.8 273.1,26.3 C273.1,26.9 272.8,27.3 272.3,27.3 C272.3,27.3 271.9,27.3 271.3,27.2 C271.1,27.2 270.9,27.2 270.6,27.2 C270.4,27.2 270.2,27.2 270,27.2 C269.6,27.2 269.4,27.3 269.3,27.3 C269.1,27.3 268.9,27.2 268.7,27 C268.5,26.8 268.5,26.6 268.5,26.3 C268.5,25.8 268.7,25.5 269.2,25.5 C269.3,25.5 269.3,25.5 269.4,25.5 C269.5,25.5 269.6,25.5 269.6,25.5 C269.8,25.5 269.8,25.2 269.8,24.7 L269.8,20.2 C269.8,19.7 269.7,19.4 269.6,19.4 C269.5,19.4 269.5,19.4 269.4,19.5 C269.3,19.5 269.3,19.5 269.2,19.5 C268.8,19.5 268.5,19.3 268.5,18.7 C268.5,18.4 268.6,18.2 268.7,18 C268.9,17.8 269.1,17.8 269.3,17.8 C269.4,17.8 269.5,17.8 269.8,17.8 C270.1,17.8 270.3,17.9 270.5,17.9 C270.7,17.9 270.9,17.9 271,17.8 C271.1,17.9 271.3,17.9 271.4,17.9" id="Shape" fill="#0F614D"></path>
                <path d="M276.4,20.6 L276.4,21.2 C277.1,20.4 277.8,20 278.7,20 C279.4,20 280,20.3 280.4,21 C280.9,20.6 281.2,20.3 281.6,20.2 C281.9,20.1 282.3,20 282.7,20 C283.6,20 284.2,20.3 284.6,20.9 C284.9,21.3 285,21.9 285,22.8 L285,24.9 C285,25.4 285.1,25.6 285.3,25.6 C285.4,25.6 285.4,25.6 285.5,25.5 C285.5,25.5 285.6,25.5 285.7,25.5 C286.1,25.5 286.3,25.7 286.3,26.2 C286.3,26.5 286.2,26.7 286.1,26.9 C286,27.1 285.8,27.2 285.5,27.2 C285.5,27.2 285.3,27.2 285.1,27.2 L284.8,27.2 C284.7,27.2 284.5,27.2 284.2,27.2 C283.9,27.2 283.6,27.2 283.4,27.3 C283.1,27.3 282.9,27.4 282.8,27.4 C282.6,27.4 282.4,27.3 282.3,27.1 C282.2,26.9 282.1,26.7 282.1,26.5 C282.1,26.1 282.3,25.8 282.6,25.8 C282.8,25.8 282.9,25.7 282.9,25.7 C282.9,25.6 282.9,25.4 282.9,25.1 L282.9,23.7 C282.9,23.1 282.8,22.7 282.7,22.5 C282.6,22.3 282.3,22.2 282,22.2 C281.2,22.2 280.8,22.8 280.8,23.8 L280.8,25.1 C280.8,25.4 280.8,25.6 280.8,25.7 C280.8,25.8 280.9,25.8 281,25.9 C281.3,26 281.4,26.2 281.4,26.6 C281.4,27.2 281.1,27.5 280.6,27.5 C280.5,27.5 280.4,27.5 280.2,27.5 C279.9,27.5 279.7,27.4 279.6,27.4 C279.5,27.4 279.3,27.4 279.1,27.5 C278.9,27.5 278.7,27.6 278.6,27.6 C278.2,27.6 277.9,27.3 277.9,26.7 C277.9,26.3 278,26.1 278.3,26 C278.5,26 278.5,25.9 278.5,25.7 C278.5,25.5 278.5,25.3 278.5,25.3 L278.5,23.8 C278.5,23.3 278.4,22.9 278.3,22.7 C278.2,22.5 278,22.4 277.6,22.4 C276.8,22.4 276.4,23 276.4,24 L276.4,25.7 C276.4,25.8 276.4,25.9 276.5,26 C276.5,26 276.6,26.1 276.8,26.1 C277.2,26.2 277.3,26.4 277.3,26.8 C277.3,27.4 277.1,27.7 276.6,27.7 C276.4,27.7 276.2,27.7 275.9,27.6 C275.6,27.6 275.4,27.5 275.2,27.5 C275,27.5 274.8,27.5 274.6,27.5 C274.2,27.5 274,27.6 273.9,27.6 C273.6,27.6 273.4,27.5 273.3,27.3 C273.2,27.1 273.1,26.9 273.1,26.7 C273.1,26.2 273.3,25.9 273.8,25.9 C273.9,25.9 274,25.9 274,25.9 C274.1,25.9 274.2,25.9 274.2,25.9 C274.4,25.9 274.4,25.6 274.4,25.1 L274.4,22.9 C274.4,22.4 274.3,22.1 274.2,22.1 C274.2,22.1 274.1,22.1 274,22.1 C273.9,22.1 273.8,22.1 273.8,22.1 C273.4,22.1 273.1,21.8 273.1,21.3 C273.1,21 273.2,20.8 273.3,20.6 C273.4,20.4 273.6,20.3 273.9,20.3 C274,20.3 274.1,20.3 274.4,20.4 C274.5,20.4 274.7,20.4 274.8,20.4 C274.9,20.4 275.1,20.4 275.3,20.3 C275.5,20.3 275.7,20.2 275.8,20.2 C276.3,20.2 276.4,20.4 276.4,20.6" id="Shape" fill="#0F614D"></path>
                <path d="M292.8,27.3 C292.1,27.3 291.6,27 291.3,26.4 C290.7,27 289.9,27.3 289,27.3 C288.3,27.3 287.7,27.1 287.3,26.7 C286.9,26.3 286.7,25.8 286.7,25.2 C286.7,24.2 287.1,23.6 287.9,23.3 C288.3,23.2 288.7,23.1 289.1,23 C289.7,22.9 290.2,22.8 290.4,22.6 C290.6,22.5 290.7,22.2 290.7,22 C290.7,21.8 290.6,21.6 290.4,21.5 C290.2,21.4 290,21.3 289.7,21.3 C289.4,21.3 289.2,21.4 289.2,21.6 L289.2,21.8 L289.2,21.9 C289.2,22.2 289.1,22.4 288.9,22.5 C288.7,22.7 288.4,22.8 288.1,22.8 C287.7,22.8 287.4,22.7 287.2,22.5 C287,22.3 286.8,22 286.8,21.7 C286.8,21.2 287.1,20.8 287.6,20.5 C288.1,20.2 288.8,20.1 289.7,20.1 C290.7,20.1 291.4,20.2 291.9,20.5 C292.4,20.8 292.7,21.4 292.7,22.3 L292.7,25.1 C292.7,25.4 292.8,25.5 292.9,25.5 L293.1,25.5 L293.2,25.5 C293.4,25.5 293.6,25.6 293.7,25.7 C293.8,25.8 293.9,26 293.9,26.2 C293.9,26.5 293.8,26.7 293.5,26.9 C293.6,27.2 293.3,27.3 292.8,27.3 M290.8,24.4 L290.8,24.1 C290.7,24.1 290.3,24.2 289.6,24.4 C289.1,24.5 288.9,24.7 288.9,25 C288.9,25.4 289.1,25.6 289.6,25.6 C290.4,25.7 290.8,25.2 290.8,24.4" id="Shape" fill="#0F614D"></path>
                <path d="M208.8,8.8 C209.4,8.9 209.8,9 210,9 C210.5,9.1 210.9,9.3 211.2,9.5 C212,10 212.4,10.7 212.4,11.8 C212.4,12.8 212,13.6 211.3,14.2 C210.6,14.8 209.7,15 208.7,15 C207.4,15 206.5,14.6 205.8,13.9 L205.8,14.4 C205.8,14.8 205.6,15 205.2,15 C204.8,15 204.6,14.6 204.6,13.9 C204.6,13.6 204.6,13.3 204.7,13 C204.7,12.6 204.8,12.4 204.8,12.3 C204.8,12.1 204.8,11.9 204.7,11.5 C204.7,11.2 204.6,10.9 204.6,10.8 C204.6,10.3 204.8,10.1 205.2,10.1 C205.6,10.1 205.8,10.3 205.8,10.8 L205.8,11.1 L205.8,11.4 C205.8,12.2 206.1,12.8 206.6,13.3 C207.1,13.7 207.7,13.9 208.5,13.9 C209.2,13.9 209.8,13.8 210.2,13.5 C210.8,13.1 211,12.6 211,11.9 C211,11.3 210.8,10.8 210.3,10.5 C210,10.3 209.5,10.1 208.7,10 C207.5,9.8 206.6,9.6 206.1,9.3 C205.7,9.1 205.3,8.8 205.1,8.4 C204.9,8 204.7,7.6 204.7,7.1 C204.7,6.2 205.1,5.4 205.8,4.8 C206.4,4.3 207.3,4 208.3,4 C209.4,4 210.2,4.3 210.8,5 L210.8,4.8 C210.8,4.4 211,4.2 211.3,4.2 C211.7,4.2 211.9,4.4 211.9,4.9 C211.9,5.1 211.9,5.3 211.8,5.7 C211.8,6 211.7,6.3 211.7,6.5 C211.7,6.7 211.7,6.9 211.8,7.2 C211.8,7.5 211.9,7.7 211.9,7.8 C211.9,8.3 211.7,8.6 211.3,8.6 C210.9,8.6 210.7,8.4 210.7,8 C210.7,7.9 210.7,7.8 210.7,7.6 C210.7,7.4 210.7,7.3 210.7,7.2 C210.7,6.5 210.5,6 210,5.7 C209.6,5.4 209,5.2 208.3,5.2 C207.7,5.2 207.2,5.3 206.8,5.6 C206.3,5.9 206.1,6.4 206.1,7 C206.1,7.5 206.3,7.9 206.7,8.2 C207.1,8.5 207.8,8.7 208.8,8.8" id="Shape" fill="#0F614D"></path>
                <path d="M214.6,12.5 L214.6,9.3 C214.6,8.5 214.4,8 214.1,8 C214,8 213.9,8 213.7,8 C213.5,8 213.4,8 213.4,8 C213.1,8 212.9,7.8 212.9,7.5 C212.9,7.1 213.1,6.9 213.6,6.9 C213.7,6.9 213.8,6.9 214,7 C214.2,7.1 214.3,7.1 214.4,7.1 C214.5,7.1 214.6,7.1 214.8,7 C215,6.9 215.1,6.9 215.2,6.9 C215.5,6.9 215.7,7.1 215.7,7.5 C215.7,7.9 215.7,8.4 215.7,8.9 C215.7,9.4 215.7,9.8 215.7,10.1 L215.7,10.8 C215.7,11.8 215.8,12.4 215.9,12.8 C216.1,13.5 216.7,13.9 217.6,13.9 C218.6,13.9 219.3,13.5 219.6,12.6 C219.8,12.1 219.8,11.3 219.8,10.1 L219.8,9.1 C219.8,8.3 219.6,7.8 219.3,7.8 C219.2,7.8 219.1,7.8 218.9,7.8 C218.7,7.8 218.6,7.8 218.6,7.8 C218.3,7.8 218.1,7.6 218.1,7.3 C218.1,6.9 218.3,6.7 218.8,6.7 C218.9,6.7 219.1,6.7 219.3,6.8 C219.5,6.9 219.7,6.9 219.8,6.9 C219.9,6.9 220,6.9 220.2,6.8 C220.4,6.7 220.5,6.7 220.6,6.7 C220.9,6.7 221.1,6.9 221.1,7.2 C221.1,7.5 221.1,7.8 221.1,8.3 C221.1,8.8 221.1,9.2 221.1,9.4 L221.1,12.2 C221.1,13 221.2,13.5 221.5,13.5 C221.6,13.5 221.7,13.5 221.9,13.5 C222,13.5 222.2,13.5 222.2,13.5 C222.5,13.5 222.7,13.7 222.7,14 C222.7,14.2 222.6,14.3 222.5,14.4 C222.4,14.5 222.2,14.6 222,14.6 C221.9,14.6 221.8,14.6 221.6,14.5 C221.4,14.4 221.3,14.4 221.2,14.4 C221.1,14.4 221,14.4 220.8,14.5 C220.6,14.6 220.5,14.6 220.4,14.6 C220.1,14.6 220,14.3 220,13.7 C219.5,14.5 218.7,14.8 217.6,14.8 C216.8,14.8 216.1,14.6 215.6,14.2 C215.1,13.8 214.6,13.4 214.6,12.5" id="Shape" fill="#0F614D"></path>
                <path d="M230.5,12.6 L230.5,6.4 C230.5,5.8 230.5,5.5 230.4,5.3 C230.3,5.2 230.2,5.1 230.1,5.1 C230,5.1 229.9,5.1 229.7,5.1 C229.5,5.1 229.4,5.1 229.3,5.1 C229,5.1 228.8,4.9 228.8,4.6 C228.8,4.4 228.9,4.3 229,4.2 C229.1,4.1 229.3,4 229.5,4 C229.7,4 229.9,4 230.1,4.1 C230.3,4.2 230.5,4.2 230.5,4.2 C230.6,4.2 230.8,4.2 230.9,4.1 C231.1,4 231.2,4 231.3,4 C231.5,4 231.6,4.1 231.6,4.2 C231.6,4.3 231.7,4.5 231.7,4.8 L231.7,12.4 C231.7,13.2 231.8,13.7 232.1,13.7 C232.2,13.7 232.3,13.7 232.5,13.7 C232.7,13.7 232.8,13.7 232.8,13.7 C233.1,13.7 233.3,13.9 233.3,14.2 C233.3,14.4 233.2,14.5 233.1,14.6 C233,14.7 232.8,14.8 232.6,14.8 C232.4,14.8 232.2,14.8 231.9,14.7 C231.6,14.6 231.3,14.6 231,14.6 C230.8,14.6 230.5,14.6 230.1,14.7 C229.8,14.8 229.5,14.8 229.4,14.8 C229.2,14.8 229.1,14.7 228.9,14.6 C228.8,14.5 228.7,14.4 228.7,14.2 C228.7,13.9 228.9,13.7 229.2,13.7 C229.3,13.7 229.4,13.7 229.5,13.7 C229.7,13.7 229.8,13.7 229.9,13.7 C230.3,13.9 230.5,13.5 230.5,12.6" id="Shape" fill="#0F614D"></path>
                <path d="M233.8,11 C233.8,9.8 234.1,8.8 234.7,8.1 C235.3,7.3 236.2,6.9 237.4,6.9 C238.6,6.9 239.5,7.3 240.2,8.1 C240.8,8.9 241.1,9.9 241.1,11 C241.1,12.2 240.8,13.2 240.1,13.9 C239.4,14.7 238.5,15.1 237.3,15.1 C236.2,15.1 235.3,14.7 234.6,13.9 C234.1,13.1 233.8,12.1 233.8,11 M235,10.9 C235,11.8 235.2,12.5 235.5,13 C235.9,13.7 236.5,14 237.3,14 C238.2,14 238.8,13.7 239.2,13 C239.6,12.4 239.7,11.7 239.7,10.8 C239.7,9.9 239.5,9.2 239.1,8.6 C238.7,8 238.1,7.7 237.3,7.7 C236.4,7.7 235.8,8 235.4,8.7 C235.2,9.4 235,10.1 235,10.9" id="Shape" fill="#0F614D"></path>
                <path d="M245,12.8 L245.6,12.8 C246.7,12.8 247.5,12.9 248.1,13.1 C249.3,13.5 249.9,14.2 249.9,15.2 C249.9,16.1 249.4,16.7 248.5,17.1 C247.8,17.4 247,17.6 246,17.6 C245,17.6 244.2,17.5 243.5,17.2 C242.6,16.8 242.2,16.2 242.2,15.3 C242.2,14.4 242.7,13.8 243.6,13.5 C242.8,13.2 242.3,12.7 242.3,12.1 C242.3,11.3 242.7,10.8 243.6,10.6 C243.3,10.3 243.2,9.8 243.2,9.3 C243.2,8.6 243.5,8 244.1,7.5 C244.7,7.1 245.3,6.9 246.1,6.9 C246.5,6.9 246.6,6.9 246.8,7 C247,7.1 247.2,7.1 247.4,7.2 C247.6,7.3 247.5,7.3 247.8,7.4 C248.6,7.9 249,8.6 249,9.5 C249,10.3 248.7,10.9 248.1,11.4 C247.6,11.8 246.9,12.1 246.1,12.1 C245.6,12.1 245,12 244.4,11.7 C244.2,11.6 244.1,11.6 244,11.6 C243.8,11.6 243.7,11.7 243.6,11.8 C243.5,11.9 243.4,12.1 243.4,12.2 C243.4,12.6 243.9,12.8 245,12.8 M246,13.9 C245.2,13.9 244.6,14 244.2,14.2 C243.7,14.5 243.4,14.8 243.4,15.3 C243.4,15.8 243.7,16.2 244.4,16.4 C244.8,16.6 245.3,16.6 246,16.6 C246.6,16.6 247.2,16.5 247.6,16.3 C248.3,16.1 248.6,15.7 248.6,15.2 C248.5,14.4 247.7,13.9 246,13.9 M246,10.9 C246.5,10.9 246.9,10.8 247.3,10.5 C247.6,10.2 247.8,9.8 247.8,9.4 C247.8,8.9 247.6,8.6 247.3,8.3 C246.9,8 246.5,7.9 246.1,7.9 C245.6,7.9 245.2,8 244.9,8.3 C244.6,8.6 244.4,9 244.4,9.4 C244.4,9.9 244.6,10.3 244.9,10.5 C245.1,10.8 245.5,10.9 246,10.9" id="Shape" fill="#0F614D"></path>
                <path d="M252,12.6 L252,9.2 C252,8.7 252,8.3 251.9,8.2 C251.8,8 251.7,8 251.6,8 C251.5,8 251.4,8 251.2,8 C251.1,8 250.9,8 250.9,8 C250.6,8 250.4,7.8 250.4,7.5 C250.4,7.1 250.6,6.9 250.9,6.9 C251,6.9 251.2,6.9 251.4,7 C251.6,7.1 251.8,7.1 251.9,7.1 C252,7.1 252.2,7.1 252.4,7 C252.6,6.9 252.7,6.9 252.8,6.9 C253.1,6.9 253.2,7.1 253.2,7.5 L253.2,13.1 C253.2,13.5 253.3,13.7 253.6,13.7 C253.7,13.7 253.7,13.7 253.9,13.7 C254,13.7 254.1,13.7 254.2,13.7 C254.5,13.7 254.7,13.9 254.7,14.2 C254.7,14.4 254.6,14.5 254.5,14.6 C254.4,14.7 254.2,14.8 254,14.8 C253.8,14.8 253.6,14.8 253.3,14.7 C253,14.6 252.7,14.6 252.5,14.6 C252.3,14.6 252,14.6 251.7,14.7 C251.4,14.8 251.1,14.8 250.9,14.8 C250.8,14.8 250.7,14.7 250.5,14.6 C250.4,14.5 250.3,14.4 250.3,14.2 C250.3,13.9 250.5,13.7 250.8,13.7 C250.9,13.7 251,13.7 251.1,13.7 C251.3,13.7 251.4,13.7 251.5,13.7 C251.7,13.7 251.8,13.5 251.9,13.2 C251.9,13.3 252,13 252,12.6" id="Shape" fill="#0F614D"></path>
                <path d="M259.1,11.5 C258.1,11.4 257.3,11.2 256.9,11 C256.2,10.6 255.8,10.1 255.8,9.3 C255.8,8.5 256.1,7.9 256.7,7.5 C257.3,7.1 257.9,6.9 258.7,6.9 C259.5,6.9 260.1,7.1 260.5,7.4 C260.4,7 260.6,6.8 261,6.8 C261.3,6.8 261.5,7 261.5,7.3 C261.5,7.4 261.5,7.6 261.5,7.9 C261.5,8.1 261.5,8.3 261.5,8.5 C261.5,8.6 261.5,8.8 261.5,9.1 C261.5,9.3 261.5,9.5 261.5,9.7 C261.5,10.1 261.3,10.3 261,10.3 C260.7,10.3 260.5,10.1 260.5,9.6 C260.5,9.3 260.5,9.2 260.5,9.1 C260.5,8.9 260.4,8.8 260.2,8.7 C259.7,8.3 259.2,8.2 258.8,8.2 C258.4,8.2 258,8.3 257.7,8.5 C257.3,8.8 257.1,9.1 257.1,9.5 C257.1,9.9 257.2,10.1 257.5,10.3 C257.8,10.5 258.2,10.6 258.9,10.7 C260,10.8 260.8,11.1 261.2,11.3 C261.7,11.6 262,12.2 262,12.9 C262,13.7 261.7,14.3 261,14.8 C260.4,15.2 259.7,15.4 258.9,15.4 C258,15.4 257.3,15.2 256.7,14.7 C256.8,15.3 256.6,15.5 256.2,15.5 C255.8,15.5 255.6,15.3 255.6,14.9 C255.6,14.8 255.6,14.5 255.7,14.3 C255.7,14 255.8,13.8 255.8,13.7 C255.8,13.6 255.8,13.4 255.7,13.1 C255.7,12.8 255.6,12.6 255.6,12.5 C255.6,12.1 255.8,12 256.1,12 C256.4,12 256.5,12.2 256.6,12.5 C256.6,13 256.7,13.3 256.7,13.4 C256.7,13.6 256.8,13.7 257,13.9 C257.5,14.3 258.1,14.5 259,14.5 C259.5,14.5 259.9,14.4 260.2,14.2 C260.5,13.9 260.7,13.6 260.7,13.2 C260.7,12 260.1,11.6 259.1,11.5" id="Shape" fill="#0F614D"></path>
                <path d="M264,11.9 L264,8.6 C264,8.4 264,8.2 263.9,8.2 C263.8,8.1 263.7,8.1 263.5,8.1 C262.9,8.1 262.6,7.9 262.6,7.5 C262.6,7.4 262.7,7.2 262.8,7.1 C262.9,7 263,6.9 263.2,6.9 L263.7,6.9 C263.8,6.9 263.9,6.9 263.9,6.8 C263.9,6.7 264,6.6 264,6.4 L264,5.2 C264,4.7 264.2,4.4 264.6,4.4 C265,4.4 265.2,4.6 265.2,5.2 L265.2,6.7 C265.2,6.9 265.3,6.9 265.5,6.9 L267,6.9 C267.5,6.9 267.8,7.1 267.8,7.5 C267.8,7.9 267.5,8 267,8 L265.7,8 C265.5,8 265.4,8 265.4,8.1 C265.4,8.1 265.3,8.2 265.3,8.3 L265.3,12 C265.3,12.7 265.4,13.1 265.5,13.4 C265.7,13.7 265.9,13.8 266.4,13.8 C267.1,13.8 267.5,13.3 267.5,12.3 L267.5,11.8 C267.5,11.2 267.7,10.9 268.1,10.9 C268.5,10.9 268.7,11.1 268.7,11.6 C268.7,12.6 268.6,13.4 268.3,13.9 C267.9,14.6 267.3,14.9 266.3,14.9 C265.4,14.9 264.8,14.6 264.5,13.9 C264.1,13.5 264,12.9 264,11.9" id="Shape" fill="#0F614D"></path>
                <path d="M270.7,12.6 L270.7,9.2 C270.7,8.7 270.7,8.3 270.6,8.2 C270.5,8 270.4,8 270.3,8 C270.2,8 270.1,8 269.9,8 C269.8,8 269.6,8 269.6,8 C269.3,8 269.1,7.8 269.1,7.5 C269.1,7.1 269.3,6.9 269.6,6.9 C269.7,6.9 269.9,6.9 270.1,7 C270.3,7.1 270.5,7.1 270.6,7.1 C270.7,7.1 270.9,7.1 271.1,7 C271.3,6.9 271.4,6.9 271.5,6.9 C271.8,6.9 271.9,7.1 271.9,7.5 L271.9,13.1 C271.9,13.5 272,13.7 272.3,13.7 C272.3,13.7 272.4,13.7 272.6,13.7 C272.7,13.7 272.8,13.7 272.9,13.7 C273.2,13.7 273.4,13.9 273.4,14.2 C273.4,14.4 273.3,14.5 273.2,14.6 C273.1,14.7 272.9,14.8 272.7,14.8 C272.5,14.8 272.3,14.8 272,14.7 C271.7,14.6 271.4,14.6 271.2,14.6 C271,14.6 270.7,14.6 270.4,14.7 C270.1,14.8 269.8,14.8 269.6,14.8 C269.5,14.8 269.4,14.7 269.2,14.6 C269.1,14.5 269,14.4 269,14.2 C269,13.9 269.2,13.7 269.5,13.7 C269.6,13.7 269.7,13.7 269.8,13.7 C270,13.7 270.1,13.7 270.2,13.7 C270.4,13.7 270.5,13.5 270.6,13.2 C270.6,13.3 270.7,13 270.7,12.6 M270.9,4.5 C271.1,4.5 271.3,4.6 271.5,4.7 C271.7,4.8 271.8,5.1 271.8,5.3 C271.8,5.5 271.7,5.7 271.5,5.9 C271.3,6.1 271.1,6.2 270.9,6.2 C270.7,6.2 270.5,6.1 270.3,5.9 C270.1,5.7 270,5.5 270,5.3 C270,5.1 270.1,4.9 270.3,4.7 C270.5,4.6 270.7,4.5 270.9,4.5" id="Shape" fill="#0F614D"></path>
                <path d="M277.6,14 C278.1,14 278.5,13.9 278.8,13.6 C279.1,13.3 279.4,13 279.5,12.5 C279.6,12.1 279.7,11.9 279.7,11.9 C279.8,11.7 280,11.6 280.2,11.6 C280.4,11.6 280.5,11.7 280.6,11.8 C280.7,11.9 280.8,12.1 280.8,12.2 C280.8,12.5 280.7,12.8 280.5,13.2 C280.3,13.5 280.2,13.8 279.9,14.1 C279.3,14.8 278.5,15.1 277.5,15.1 C276.4,15.1 275.5,14.7 274.9,13.9 C274.3,13.2 274,12.2 274,11.1 C274,9.9 274.3,8.9 274.9,8.1 C275.6,7.3 276.5,6.8 277.7,6.8 C278.4,6.8 279,7 279.5,7.3 C280.2,7.8 280.5,8.4 280.5,9.1 C280.5,9.5 280.4,9.8 280.2,10.1 C280,10.4 279.7,10.5 279.3,10.5 C279.1,10.5 278.8,10.4 278.7,10.3 C278.5,10.1 278.4,9.9 278.4,9.7 C278.4,9.3 278.7,9 279.2,9 C279.2,8.6 279,8.3 278.6,8.1 C278.3,7.9 277.9,7.8 277.5,7.8 C276.7,7.8 276.1,8.1 275.7,8.8 C275.3,9.4 275.1,10.1 275.1,10.9 C275.1,11.8 275.3,12.5 275.6,13 C276.2,13.7 276.8,14 277.6,14" id="Shape" fill="#0F614D"></path>
                <path d="M287.9,9.7 L287.8,12.4 C287.8,12.4 287.8,12.5 287.8,12.6 L287.8,12.9 C287.8,13.6 288,14 288.4,14 C288.7,14 288.9,13.8 288.9,13.5 C288.9,13.4 288.9,13.1 288.9,12.7 C288.9,12.4 288.9,12.2 288.9,12.1 C288.9,11.9 289.1,11.8 289.3,11.8 C289.7,11.8 289.8,12 289.8,12.4 C289.8,13.1 289.8,13.5 289.8,13.6 C289.8,14.1 289.6,14.5 289.3,14.7 C289,14.9 288.7,15 288.2,15 C287.3,15 286.8,14.6 286.7,13.9 C286.2,14.7 285.4,15 284.3,15 C283.6,15 283,14.9 282.5,14.6 C281.8,14.2 281.5,13.6 281.5,12.8 C281.5,11.9 281.8,11.3 282.5,10.9 C282.9,10.6 283.6,10.5 284.5,10.4 C285.3,10.3 285.7,10.2 285.9,10.2 C286.4,10 286.6,9.7 286.6,9.2 C286.6,8.3 286,7.8 284.9,7.8 C284.5,7.8 284.1,7.9 283.7,8.1 C283.5,8.2 283.4,8.4 283.4,8.5 C283.4,8.5 283.5,8.5 283.6,8.6 C283.7,8.7 283.8,8.9 283.8,9.1 C283.8,9.3 283.7,9.5 283.6,9.6 C283.4,9.7 283.2,9.8 283,9.8 C282.7,9.8 282.5,9.7 282.3,9.5 C282.1,9.3 282,9.1 282,8.8 C282,8.2 282.3,7.7 282.9,7.2 C283.4,6.8 284.1,6.6 284.9,6.6 C285.8,6.6 286.4,6.8 287,7.2 C287.6,7.8 287.9,8.6 287.9,9.7 M282.8,12.8 C282.8,13.2 283,13.5 283.3,13.8 C283.6,14 283.9,14.1 284.4,14.1 C285.3,14.1 285.9,13.8 286.3,13.3 C286.6,13 286.7,12.5 286.7,11.8 C286.7,11.6 286.7,11.3 286.7,10.8 C286.5,11 286.1,11.2 285.7,11.3 C285.5,11.3 285.1,11.4 284.6,11.5 C283.4,11.6 282.8,12 282.8,12.8" id="Shape" fill="#0F614D"></path>
                <path d="M292.4,15 C291.7,15 291.4,14.7 291.4,14.1 C291.4,13.8 291.5,13.5 291.7,13.3 C291.9,13.1 292.2,13 292.5,13 C292.9,13 293.2,13.2 293.4,13.5 C293.6,13.8 293.7,14.1 293.7,14.5 C293.7,15.2 293.5,15.9 293,16.6 C292.6,17.2 292.3,17.5 292.1,17.5 C291.9,17.5 291.8,17.4 291.8,17.2 C291.8,17.2 292,16.9 292.3,16.4 C292.6,15.9 292.8,15.5 292.8,15.2 C292.8,15.1 292.7,15 292.4,15" id="Shape" fill="#0F614D"></path>
                <path d="M253.9,4.8 C253.8,4.7 253.7,4.7 253.5,4.7 L253.3,4.7 C253.3,4.7 253.3,4.7 253.3,4.7 C253.3,4.7 253.2,4.7 253.2,4.7 C253.1,4.7 253.1,4.7 253,4.8 C253,4.8 252.9,4.8 252.9,4.8 C252.9,4.8 252.8,4.8 252.8,4.9 C252.8,4.9 252.7,4.9 252.7,5 C252.7,5 252.6,5 252.6,5.1 C252.5,5.1 252.4,5.2 252.3,5.3 C252.2,5.4 252.1,5.4 252,5.5 C251.7,5.8 251.4,6 251.2,6.3 C251,6.5 250.9,6.7 250.9,6.7 C250.9,6.8 250.9,6.8 250.9,6.9 C250.9,6.9 251,6.9 251,6.9 C251,6.9 251,6.9 251,6.9 C251,6.9 251,6.9 251.1,6.8 C251.6,6.3 252.5,5.9 252.7,5.9 C253.1,5.8 253.5,5.8 253.5,5.8 C253.5,5.8 253.6,5.8 253.6,5.8 C253.7,5.8 253.7,5.8 253.8,5.8 C254,5.7 254.1,5.5 254.1,5.3 C254.1,5 254,4.9 253.9,4.8" id="Shape" fill="#265549"></path>
            </g>
        </g>
    </g>
</svg>