<?xml version="1.0" encoding="UTF-8"?>
<svg width="131px" height="26px" viewBox="0 0 131 26" version="1.1" xmlns="http://www.w3.org/2000/svg" xmlns:xlink="http://www.w3.org/1999/xlink">
    <!-- Generator: Sketch 51.1 (57501) - http://www.bohemiancoding.com/sketch -->
    <title>Group 7</title>
    <desc>Created with Sketch.</desc>
    <defs></defs>
    <g id="Page-1" stroke="none" stroke-width="1" fill="none" fill-rule="evenodd">
        <g id="Artboard" transform="translate(-85.000000, -3640.000000)" fill-rule="nonzero">
            <g id="Group-7" transform="translate(85.000000, 3640.000000)">
                <path d="M35.2,15.4 C35.2,16.5 34.8,17.3 34.2,18 C33.5,18.6 32.6,18.9 31.5,18.9 C30.7,18.9 30.1,18.7 29.6,18.3 C29.1,17.9 28.9,17.4 28.9,16.8 C28.9,15.6 29.9,14.8 31.8,14.7 C32.9,14.6 33.6,14.5 34,14.3 C34.4,14.2 34.8,13.9 35.2,13.6 L35.2,15.4 Z M38.2,19 C38,18.9 37.7,18.9 37.5,18.7 C37.3,18.5 37.2,18.3 37.2,18 C37.2,17.8 37.1,17.4 37.2,16.5 L37.2,11.3 C37.2,8.3 35.6,6.8 32.5,6.8 C31.2,6.8 30,7.1 29.1,7.8 C28.7,8.1 28.4,8.4 28.1,8.8 C27.9,9.2 28.3,9.7 28.6,9.8 C29.2,9.9 29.8,9.4 30.2,9.1 C30.8,8.7 31.6,8.4 32.4,8.4 C33.3,8.4 33.9,8.6 34.4,9 C34.9,9.4 35.1,9.9 35.1,10.6 C35.1,11.3 34.9,11.8 34.4,12.1 C34,12.4 33,12.6 31.6,12.7 C30.6,12.8 29.9,12.9 29.6,13 C29.3,13.1 28.9,13.2 28.4,13.5 C27.2,14.2 26.6,15.2 26.6,16.6 C26.6,17.7 27,18.7 27.8,19.3 C28.6,20 29.7,20.3 31.1,20.3 C33,20.3 34.3,19.7 35.2,18.5 C35.2,18.5 35.3,18.8 35.3,18.9 C35.3,19 35.4,19.1 35.5,19.3 C35.8,19.7 36.1,20 36.6,20.1 C36.9,20.2 37.4,20.4 37.8,20.3 C38,20.3 38.2,20.2 38.3,20 C38.4,19.9 38.5,19.7 38.5,19.5 C38.8,19.4 38.6,19.2 38.2,19 Z" id="Shape" fill="#71AA60"></path>
                <path d="M79.5,15.4 C79.5,16.5 79.1,17.3 78.5,18 C77.8,18.6 76.9,18.9 75.8,18.9 C75,18.9 74.4,18.7 73.9,18.3 C73.4,17.9 73.2,17.4 73.2,16.8 C73.2,15.6 74.2,14.8 76.1,14.7 C77.2,14.6 77.9,14.5 78.3,14.3 C78.7,14.1 79.1,13.9 79.5,13.6 L79.5,15.4 Z M82.5,19 C82.3,18.9 82,18.9 81.8,18.7 C81.6,18.5 81.5,18.3 81.5,18 C81.5,17.8 81.5,17.4 81.5,16.5 L81.5,11.3 C81.5,8.3 80,6.8 76.9,6.8 C75.6,6.8 74.4,7.1 73.5,7.8 C73.1,8.1 72.8,8.4 72.5,8.8 C72.3,9.2 72.7,9.7 73,9.8 C73.6,9.9 74.2,9.4 74.6,9.1 C75.2,8.7 76,8.4 76.8,8.4 C77.7,8.4 78.3,8.6 78.8,9 C79.3,9.4 79.5,9.9 79.5,10.6 C79.5,11.3 79.3,11.8 78.8,12.1 C78.4,12.4 77.4,12.6 76,12.7 C75,12.8 74.3,12.9 74,13 C73.7,13.1 73.3,13.2 72.8,13.5 C71.6,14.2 71,15.2 71,16.6 C71,17.7 71.4,18.7 72.2,19.3 C73,20 74.1,20.3 75.5,20.3 C77.4,20.3 78.7,19.7 79.6,18.5 C79.6,18.5 79.7,18.8 79.7,18.9 C79.8,19 79.8,19.1 79.9,19.3 C80.2,19.7 80.5,20 81,20.1 C81.3,20.2 81.8,20.4 82.2,20.3 C82.4,20.3 82.6,20.2 82.7,20 C82.8,19.9 82.9,19.7 82.9,19.5 C83.1,19.4 82.9,19.1 82.5,19 Z" id="Shape" fill="#4C8351"></path>
                <path d="M103.2,15.4 C103.2,16.5 102.8,17.3 102.2,18 C101.5,18.6 100.6,18.9 99.5,18.9 C98.7,18.9 98.1,18.7 97.6,18.3 C97.1,17.9 96.9,17.4 96.9,16.8 C96.9,15.6 97.9,14.8 99.8,14.7 C100.9,14.6 101.6,14.5 102,14.3 C102.4,14.2 102.8,13.9 103.2,13.6 L103.2,15.4 Z M106.2,19 C106,18.9 105.7,18.9 105.5,18.7 C105.3,18.5 105.2,18.3 105.2,18 C105.2,17.8 105.1,17.4 105.1,16.5 L105.1,11.3 C105.1,8.3 103.6,6.8 100.5,6.8 C99.2,6.8 98,7.1 97.1,7.8 C96.7,8.1 96.4,8.4 96.1,8.8 C95.9,9.2 96.3,9.7 96.6,9.8 C97.2,9.9 97.8,9.4 98.2,9.1 C98.8,8.7 99.6,8.4 100.4,8.4 C101.3,8.4 101.9,8.6 102.4,9 C102.9,9.4 103.1,9.9 103.1,10.6 C103.1,11.3 102.9,11.8 102.4,12.1 C102,12.4 101,12.6 99.6,12.7 C98.6,12.8 97.9,12.9 97.6,13 C97.3,13.1 96.9,13.2 96.4,13.5 C95.2,14.2 94.6,15.2 94.6,16.6 C94.6,17.7 95,18.7 95.8,19.3 C96.6,20 97.7,20.3 99.1,20.3 C101,20.3 102.3,19.7 103.2,18.5 C103.2,18.5 103.3,18.8 103.3,18.9 C103.4,19 103.4,19.1 103.5,19.3 C103.8,19.7 104.1,20 104.6,20.1 C104.9,20.2 105.4,20.4 105.8,20.3 C106,20.3 106.2,20.2 106.3,20 C106.4,19.9 106.5,19.7 106.5,19.5 C106.8,19.4 106.6,19.1 106.2,19 Z" id="Shape" fill="#2F6C49"></path>
                <path d="M46.3,19 C46.2,19 46,19 45.9,19 C45.6,19 45.1,19 44.8,18.8 C44.5,18.5 44.5,18 44.5,17.7 L44.5,9.8 C44.5,8.7 44.5,7 44.6,5.9 C44.6,5.3 44.5,4.7 44.3,4.1 C44,3.5 43.5,3.1 42.9,3 C42.2,2.9 41.4,2.9 40.7,2.9 C40.2,2.9 39.8,2.9 39.3,3 C38.7,3 38,3 37.9,3.7 C37.8,4.1 38.2,4.4 38.6,4.5 C39.1,4.6 39.6,4.5 40.1,4.5 C40.6,4.5 41.1,4.4 41.7,4.5 C42.1,4.5 42.4,4.6 42.6,4.9 C42.8,5.2 42.8,5.6 42.8,5.9 L42.8,14.7 L42.8,16.5 C42.8,17.6 42.7,18.3 42.7,18.6 C42.4,19.8 40.1,18.2 40.1,19.8 C40.1,20.3 40.4,20.6 40.9,20.6 C42,20.7 46.2,20.7 46.6,20.6 C46.9,20.6 47.2,20.6 47.3,20.4 C47.4,20.3 47.5,20 47.5,19.9 C47.2,19.2 46.8,19 46.3,19" id="Shape" fill="#649B5A"></path>
                <path d="M70.3,19 C70.2,19 70.1,19 69.9,19 C69.6,19 69.1,19 68.9,18.8 C68.8,18.7 68.7,18.4 68.7,18.2 L68.7,14.9 L68.7,12.1 C68.7,11.7 68.7,11.3 68.7,11 L68.7,10.7 C68.6,10.2 68.6,9.8 68.4,9.4 C68.1,8.6 67.5,7.9 66.6,7.5 C65.8,7.1 65,6.9 64,6.9 C63.1,6.9 62.3,7 61.7,7.3 C61.1,7.6 60.5,8.1 59.9,8.8 C59.1,7.5 57.9,6.9 56.2,6.9 C55.4,6.9 54.7,7 54.2,7.3 C53.7,7.5 53.3,7.9 52.7,8.5 C52.4,7.3 51.7,7.1 51.4,7 C50.8,6.9 50.2,6.9 49.6,6.9 C49.3,6.9 48.6,6.9 48.4,7.2 C48.3,7.4 48.3,8 48.6,8.2 C49.2,8.6 50,8.1 50.6,8.5 C50.8,8.6 50.8,8.8 50.9,8.9 C50.9,9.1 51,9.2 51,9.7 L51,14.8 L51,16.5 C51,17.5 50.9,18.2 50.9,18.4 C50.6,19.5 48.5,18 48.5,19.5 C48.5,20 48.8,20.3 49.2,20.4 C50.2,20.5 54.1,20.5 54.4,20.5 C54.7,20.5 55,20.4 55.1,20.1 C55.2,20 55.2,19.8 55.2,19.6 C55.2,19 54.9,18.8 54.4,18.8 C54.3,18.8 54.2,18.8 54,18.8 C53.7,18.8 53.2,18.8 53,18.6 C52.7,18.3 52.7,17.9 52.7,17.5 L52.7,16.6 L52.7,13 C52.7,11.3 52.9,10.2 53.4,9.5 C54,8.7 54.9,8.3 56,8.3 C57,8.3 57.7,8.6 58.1,9.2 C58.5,9.8 58.7,10.8 58.7,12.3 L58.7,18.5 C58.3,19.5 56.3,18.1 56.3,19.5 C56.3,20 56.6,20.2 57,20.3 C58,20.5 59.1,20.4 60.1,20.4 C60.5,20.4 60.8,20.4 61.2,20.4 C61.5,20.4 61.9,20.4 62.2,20.4 C62.5,20.4 62.8,20.3 62.9,20.1 C63,20 63,19.8 63,19.6 C63,19 62.7,18.8 62.2,18.8 C62.1,18.8 62,18.8 61.8,18.8 C61.5,18.8 61,18.8 60.8,18.6 C60.5,18.3 60.5,17.9 60.5,17.5 L60.5,11.4 C60.6,10.6 60.7,9.9 61,9.5 C61.5,8.7 62.3,8.2 63.5,8.2 C64.1,8.2 64.7,8.4 65.2,8.7 C65.7,9 66,9.4 66.2,10 C66.4,10.5 66.5,11.4 66.5,12.6 L66.5,14.6 L66.5,17.7 C66.5,18 66.4,18.3 66.4,18.4 C66.1,19.5 64,18 64,19.5 C64,20 64.3,20.2 64.7,20.3 C65.7,20.5 66.8,20.4 67.8,20.4 C68.2,20.4 68.5,20.4 68.9,20.4 C69.2,20.4 69.6,20.4 69.9,20.4 C70.2,20.4 70.5,20.3 70.6,20.1 C70.7,20 70.7,19.8 70.7,19.6 C71.1,19.2 70.8,19 70.3,19" id="Shape" fill="#5B8E56"></path>
                <path d="M84.5,8.8 C83.4,10 82.9,11.6 82.9,13.6 L82.9,13.9 C82.9,15.9 83.4,17.5 84.5,18.7 C85.6,19.9 87,20.5 88.7,20.5 C89.9,20.5 91,20.2 91.9,19.5 C92.7,18.9 93.7,18 93.7,16.9 C93.7,16.6 93.6,16.4 93.4,16.2 C93.2,16 93,15.9 92.7,15.9 C92.3,15.9 92.1,16.1 91.9,16.4 C91.4,17.7 90.3,18.8 88.8,18.8 C87.6,18.8 86.7,18.3 86,17.4 C85.3,16.5 85,15.2 85,13.6 C85,12 85.3,10.8 86,9.8 C86.7,8.9 87.6,8.4 88.8,8.4 C90.3,8.4 91.4,9.5 91.9,10.8 C92.1,11.1 92.4,11.3 92.7,11.3 C93,11.3 93.2,11.2 93.4,11 C93.6,10.8 93.7,10.6 93.7,10.3 C93.7,9.2 92.7,8.3 91.9,7.7 C91,7 89.8,6.7 88.7,6.7 C87,6.9 85.6,7.5 84.5,8.8" id="Shape" fill="#3E774D"></path>
                <path d="M114.9,7.8 L112.9,7.8 C112.7,7.8 112.6,7.7 112.6,7.5 L112.6,7 C112.6,6.2 112.8,5.6 113.2,5.1 C113.6,4.6 114.2,4.4 114.9,4.4 C115.3,4.4 115.8,4.5 116.1,4.7 C116.5,5 116.7,5.3 117.2,5.4 C117.5,5.4 117.9,5.4 118.1,5.2 C118.4,4.9 118.2,4.4 118,4.1 C117.8,3.9 117.6,3.6 117.4,3.5 C116.8,3.1 115.9,2.9 114.8,2.9 C113.5,2.9 112.5,3.3 111.8,4 C111.1,4.7 110.7,5.7 110.7,7 L110.7,7.5 C110.7,7.7 110.6,7.8 110.4,7.8 L108.9,7.8 C108.3,7.8 108,8.1 108,8.7 C108,9.3 108.3,9.6 108.9,9.6 L110.2,9.6 C110.5,9.6 110.7,9.8 110.7,10.1 L110.7,15.4 C110.7,17 110.7,17.9 110.6,18.3 L110.5,18.6 C110.2,19.8 107.9,18.2 107.9,19.8 C107.9,20.3 108.2,20.5 108.6,20.5 C109.7,20.6 113.9,20.6 114.2,20.6 C114.5,20.6 114.8,20.6 115,20.4 C115.1,20.3 115.2,20 115.2,19.9 C115.2,19.3 114.8,19.1 114.3,19.1 C114.2,19.1 114,19.1 113.9,19.1 C113.6,19.1 113.1,19.1 112.8,18.9 C112.5,18.6 112.5,18.1 112.5,17.8 L112.5,10 C112.6,9.8 112.7,9.8 112.9,9.8 L114.8,9.8 C115.4,9.8 115.6,9.5 115.6,8.9 C115.7,8.1 115.5,7.8 114.9,7.8" id="Shape" fill="#2C6149"></path>
                <path d="M124.8,12.3 L118.9,12.3 C118.5,12.3 118.4,12.2 118.4,11.9 C118.4,11 118.8,10.3 119.5,9.6 C120.3,8.9 121.1,8.6 122,8.6 C122.9,8.6 123.7,8.9 124.3,9.6 C125,10.3 125.3,11 125.3,12 C125.4,12.2 125.2,12.3 124.8,12.3 M125.8,8.5 C124.8,7.4 123.5,6.9 122,6.9 C120.3,6.9 118.9,7.5 117.8,8.8 C116.8,10 116.3,11.6 116.2,13.5 L116.2,13.8 C116.2,15.8 116.7,17.4 117.8,18.6 C118.9,19.8 120.3,20.4 122,20.4 C123.2,20.4 124.3,20.1 125.2,19.4 C126,18.8 127,17.9 127,16.8 C127,16.5 126.9,16.3 126.7,16.1 C126.5,15.9 126.3,15.8 126,15.8 C125.6,15.8 125.4,16 125.2,16.3 C124.7,17.6 123.6,18.7 122.1,18.7 C120.9,18.7 120,18.2 119.3,17.3 C118.7,16.5 118.3,15.3 118.3,13.9 C118.4,13.8 118.5,13.8 118.7,13.8 L126.5,13.8 C126.9,13.8 127.1,13.7 127.2,13.6 C127.3,13.5 127.3,13.1 127.3,12.4 C127.3,11 126.8,9.6 125.8,8.5" id="Shape" fill="#2A5647"></path>
                <path d="M19.2,15.9 C18.7,16.9 17.7,17.5 17.2,18.4 C16.6,19.3 16.2,20.3 15.2,20.8 C14.4,21.3 12.3,23.1 11.5,22.7 C10.9,22.4 10.8,21 10.7,20.4 C10.7,19.7 10.4,19.3 10.3,18.6 C10.2,17.5 9.9,16.1 10,15 C10.1,14 10.8,13.3 11.3,12.4 C11.7,11.6 11.7,10.8 12.2,10 C13,8.8 14.7,8.5 15.4,7.2 C15.6,6.8 15.5,6.2 16,6.2 L16.3,6 C16.8,5.9 17.7,7.5 18.1,7.9 C18.8,8.6 19.7,9.3 20.1,10.3 C20.4,11.3 19.8,12.2 19.6,13.1 C19.3,14.1 19.7,15 19.2,15.9 M8.3,21.9 C7.2,21.6 6.3,21.4 5.5,20.5 C5.4,20.4 5.3,20.1 5.2,20 C5,19.7 4.8,19.6 4.5,19.3 C3.6,18.6 4,16.2 3.7,15.2 C3.4,14.3 3,13.7 3.3,12.6 C3.6,11.6 3.5,10.6 4,9.7 C4.2,9.3 4.5,9.1 4.7,8.8 C5.1,8.4 4.8,8.4 5,8 C5.4,6.8 7.3,5.5 8.4,5 C9.1,4.6 9.8,4.5 10.6,4.6 C11.1,4.7 13.1,4.5 12.6,5.3 L11.2,6.2 C10.8,6.6 10.7,7.1 10.3,7.3 C9.9,7.5 9.9,7.7 9.6,8.1 C9.3,8.5 9.1,8.7 9.1,9.1 C9,9.7 8.5,10.1 8.3,10.7 C8.1,11.3 8.2,11.9 8,12.5 C7.7,13.3 7.5,13.8 7.5,14.7 C7.5,15.1 7.5,15.5 7.7,15.8 C7.9,16.2 8.3,16.5 8.4,16.9 C8.5,17.4 8.2,18.1 8.4,18.6 C8.6,19.5 9,20.4 9.3,21.2 C9.3,22 9.3,22.2 8.3,21.9 M23.2,9.2 C23.3,7.9 23.6,6.6 23.3,5.3 C23,3.8 23.6,1.7 22.1,0.8 C21.4,0.4 20.6,0.6 19.8,0.6 C18.2,0.6 16.6,0.3 15,0.5 C14.1,0.6 13.2,0.6 12.3,0.7 C11.8,0.8 11.1,1.1 10.5,1.4 C10.5,1.4 10.4,1.4 10.4,1.4 C9.8,1.4 9.4,1.4 8.9,1.8 C8.4,2.1 8,2.3 7.5,2.4 C7,2.5 6.5,2.5 6.1,2.8 C5.6,3.2 5.3,3.9 5,4.4 C4.6,5 4.1,5.3 3.7,5.8 C3.3,6.2 3,6.8 2.7,7.3 C2.3,7.9 2.1,7.6 1.9,8.3 C1.7,9.3 1.6,10.2 1.2,11.2 C0.9,12 0.7,12.7 0.6,13.6 C0.4,14.8 0.8,15.4 0.9,16.5 C0.9,16.9 1,17.2 1.1,17.6 C1.5,18.5 2.2,19.3 2.8,20.1 C3,20.4 3,20.6 3.1,20.9 C3.3,21.4 3.5,21.8 3.8,22.2 C4.3,22.8 5.1,23 5.6,23.6 C6.1,24.1 6.4,24.7 7.2,24.9 C9.6,25.3 12.8,25.2 15.1,23.9 C15.6,23.6 16.3,23.7 16.8,23.3 C17.1,23 17.2,22.8 17.6,22.6 C17.9,22.4 18.4,22.4 18.7,22.3 C19.4,22.1 19.9,21.6 20.2,21 C20.3,20.7 20.3,20.4 20.5,20.1 C20.7,19.8 21.1,19.7 21.3,19.4 C21.6,18.9 21.7,18.4 21.9,17.9 C22.1,17.2 22.2,16.5 22.4,15.8 C22.7,15.8 23.8,13.6 23.8,13.1 C23.7,11.6 23.1,10.5 23.2,9.2" id="Shape" fill="#7FBE66"></path>
                <path d="M127,3.7 C126.9,3.5 126.6,3.3 126.4,3.3 L126.1,3.2 L126,3.2 C125.9,3.2 125.8,3.2 125.7,3.2 C125.6,3.2 125.4,3.2 125.2,3.2 C125.1,3.2 125,3.2 124.9,3.2 C124.8,3.2 124.7,3.2 124.6,3.2 C124.5,3.2 124.4,3.2 124.3,3.2 C124.2,3.2 124.1,3.2 124,3.3 C123.8,3.3 123.6,3.4 123.4,3.5 C123.2,3.6 123,3.6 122.8,3.7 C122,4 121.4,4.3 120.9,4.7 C120.4,5 120.2,5.3 120.1,5.3 C120.1,5.3 120.1,5.3 120.1,5.3 C120,5.4 120,5.5 120.1,5.6 C120.2,5.7 120.3,5.7 120.4,5.7 C120.4,5.7 120.5,5.7 120.5,5.7 C120.5,5.7 120.6,5.7 120.7,5.6 C121.8,4.9 123.8,4.8 124.2,4.8 C125.1,4.8 125.7,5.1 125.7,5.1 C125.8,5.1 125.8,5.2 125.9,5.2 C126,5.2 126.1,5.2 126.2,5.2 C126.6,5.1 126.9,4.8 127,4.4 C127.2,4.1 127.2,3.9 127,3.7" id="Shape" fill="#2A5647"></path>
                <path d="M129.9,19.1 C129.9,19.2 129.9,19.3 129.8,19.3 C129.7,19.3 129.7,19.3 129.5,19.3 L129.3,19.3 C129.3,19.3 129.3,19.3 129.3,19.3 C129.3,19.3 129.3,19.3 129.3,19.3 L129.3,19 C129.3,19 129.3,18.9 129.3,18.9 C129.3,18.9 129.4,18.9 129.5,18.9 C129.8,18.9 129.9,18.9 129.9,19.1 M130.2,20 C130.2,20 130.1,20 130.2,20 C130.1,20 130,20 130,19.9 L130,19.8 C130,19.7 130,19.6 129.9,19.5 C129.9,19.5 129.8,19.4 129.8,19.4 C129.8,19.4 129.9,19.4 129.9,19.4 C130,19.3 130.1,19.2 130.1,19.1 C130.1,18.8 129.9,18.7 129.6,18.7 C129.6,18.7 129.5,18.7 129.4,18.7 L129.2,18.7 C129.1,18.7 129,18.7 128.9,18.7 L128.8,18.7 C128.8,18.7 128.8,18.7 128.8,18.7 C128.7,18.7 128.7,18.8 128.7,18.8 C128.7,18.8 128.7,18.9 128.7,18.9 C128.7,18.9 128.7,18.9 128.8,18.9 C128.8,18.9 128.8,18.9 128.9,18.9 C128.9,18.9 128.9,18.9 129,18.9 C129,18.9 129.1,18.9 129.1,19 L129.1,19.9 C129.1,20 129,20 129,20 C129,20 129,20 129,20 C129,20 128.9,20 128.9,20 C128.8,20 128.8,20 128.8,20.1 C128.8,20.2 128.8,20.2 128.9,20.2 C128.9,20.2 128.9,20.2 128.9,20.2 L129,20.2 C129.1,20.2 129.1,20.2 129.2,20.2 C129.2,20.2 129.3,20.2 129.3,20.2 L129.5,20.2 C129.6,20.2 129.6,20.1 129.6,20.1 C129.6,20 129.6,20 129.5,20 C129.5,20 129.5,20 129.4,20 C129.4,20 129.4,20 129.4,20 C129.4,20 129.3,20 129.3,19.9 C129.3,19.9 129.3,19.9 129.3,19.7 L129.3,19.5 C129.3,19.4 129.3,19.4 129.3,19.4 L129.5,19.4 C129.6,19.4 129.7,19.4 129.7,19.4 C129.7,19.4 129.7,19.5 129.7,19.6 L129.7,19.8 C129.7,20 129.8,20.1 130,20.1 C130.1,20.1 130.2,20.1 130.2,20 C130.2,20 130.2,19.9 130.2,19.9 C130.3,20 130.3,20 130.2,20" id="Shape" fill="#2A5647"></path>
                <path d="M129.6,20.6 C129,20.6 128.5,20.1 128.5,19.5 C128.5,18.9 129,18.4 129.6,18.4 C130.2,18.4 130.7,18.9 130.7,19.5 C130.7,20.1 130.2,20.6 129.6,20.6 M129.6,18.1 C128.9,18.1 128.3,18.7 128.3,19.4 C128.3,20.1 128.9,20.7 129.6,20.7 C130.3,20.7 130.9,20.1 130.9,19.4 C130.9,18.7 130.3,18.1 129.6,18.1" id="Shape" fill="#2A5647"></path>
            </g>
        </g>
    </g>
</svg>