<?xml version="1.0" encoding="UTF-8"?>
<svg width="66px" height="60px" viewBox="0 0 66 60" version="1.1" xmlns="http://www.w3.org/2000/svg" xmlns:xlink="http://www.w3.org/1999/xlink">
    <!-- Generator: Sketch 51.1 (57501) - http://www.bohemiancoding.com/sketch -->
    <title>almacenamiento</title>
    <desc>Created with Sketch.</desc>
    <defs></defs>
    <g id="Page-1" stroke="none" stroke-width="1" fill="none" fill-rule="evenodd">
        <g id="Artboard" transform="translate(-495.000000, -779.000000)" fill="#FFFFFF" fill-rule="nonzero">
            <path d="M527.037391,790.85904 C531.644558,793.533538 536.251725,796.307091 540.959047,798.981589 C543.563098,800.467421 546.167149,802.349475 548.971511,803.637196 C549.47229,803.835307 549.973069,804.330584 550.473848,804.528695 C548.971511,803.835307 550.073225,802.745697 549.772758,804.528695 C548.671044,810.372968 549.772758,817.405907 549.772758,823.349235 L549.772758,837.613223 L551.275095,836.127391 L504.502337,836.127391 L506.004674,837.613223 L506.004674,823.646402 L506.004674,812.155967 C506.004674,809.67958 506.505453,806.707916 506.004674,804.330584 C505.904518,803.835307 506.004674,803.34003 506.004674,802.943808 C506.204986,804.528695 504.702649,804.231529 506.605609,803.439085 C509.309815,802.349475 511.81371,800.467421 514.317605,798.981589 C519.024928,796.307091 523.73225,793.632593 528.539728,790.85904 C530.242377,789.868485 528.74004,787.293043 527.037391,788.283598 C519.225239,792.741094 511.513243,797.099535 503.701091,801.557031 C503.200312,801.854198 503,802.349475 503,802.844752 L503,837.514168 C503,838.306612 503.701091,839 504.502337,839 L551.275095,839 C552.076341,839 552.777432,838.306612 552.777432,837.514168 L552.777432,822.35868 L552.777432,810.967301 C552.777432,808.689025 553.278211,805.915472 552.777432,803.637196 C552.076341,800.467421 546.36746,798.585367 543.663254,797.000479 C538.655464,794.028815 533.547518,791.156206 528.539728,788.184542 C526.83708,787.293043 525.334743,789.868485 527.037391,790.85904 M497.266564,799.672353 C495.577545,800.579919 494.087235,797.95806 495.676899,797.151334 C501.439432,793.92443 507.102611,790.697526 512.865145,787.470623 C516.441889,785.453808 520.018634,783.436993 523.595379,781.420178 C524.886981,780.714293 526.774707,779 528.265018,779 C529.755328,779 531.643054,780.714293 532.835302,781.420178 C536.412047,783.436993 539.889438,785.453808 543.366828,787.470623 C549.030008,790.697526 554.593833,793.92443 560.257012,797.151334 C561.94603,798.159742 560.45572,800.781601 558.766701,799.773193 C553.600292,796.747971 548.334529,793.82359 543.16812,790.798367 C539.69073,788.781552 536.113985,786.764737 532.636594,784.747922 C531.444346,784.042037 530.05339,783.436993 528.960496,782.630267 C528.463726,782.226904 526.874061,781.823541 528.364372,781.823541 C529.854682,781.823541 528.165663,782.226904 527.668893,782.630267 C526.575999,783.436993 525.185043,784.042037 523.992795,784.747922 C520.217342,786.764737 516.541243,788.882393 512.765791,791.000049 C507.599382,793.82359 502.432973,796.747971 497.266564,799.672353 Z M514,805 L518.8,805 L518.8,809.736434 L523.6,809.736434 L523.6,805 L527,805 L527,818 L514,818 L514,805 Z M529,805 L533.1,805 L533.1,809.736434 L537.2,809.736434 L537.2,805 L542,805 L542,818 L529,818 L529,805 Z M529,820 L533.1,820 L533.1,824.682927 L537.2,824.682927 L537.2,820 L542,820 L542,832 L529,832 L529,820 Z M514,820 L518.8,820 L518.8,824.682927 L523.6,824.682927 L523.6,820 L527,820 L527,832 L514,832 L514,820 Z" id="almacenamiento"></path>
        </g>
    </g>
</svg>