<?xml version="1.0" encoding="UTF-8"?>
<svg width="51px" height="60px" viewBox="0 0 51 60" version="1.1" xmlns="http://www.w3.org/2000/svg" xmlns:xlink="http://www.w3.org/1999/xlink">
    <!-- Generator: Sketch 51.1 (57501) - http://www.bohemiancoding.com/sketch -->
    <title>almacenamiento_aduana</title>
    <desc>Created with Sketch.</desc>
    <defs></defs>
    <g id="Page-1" stroke="none" stroke-width="1" fill="none" fill-rule="evenodd">
        <g id="Artboard" transform="translate(-315.000000, -779.000000)" fill="#FFFFFF" fill-rule="nonzero">
            <path d="M338.375389,839 C331.562305,839 324.833333,839 318.020249,839 C316.253894,839 315.833333,838.582426 315.833333,836.828613 C315.833333,825.470588 315.833333,814.112564 315.833333,802.838054 C315.833333,801.084241 316.253894,800.666667 318.020249,800.666667 C322.309969,800.666667 326.599688,800.666667 330.889408,800.666667 C331.478193,800.666667 332.235202,801.000726 332.655763,801.418301 C334.338006,803.005084 335.936137,804.675381 337.61838,806.262164 C338.123053,806.679739 338.880062,807.013798 339.468847,807.013798 C345.861371,807.097313 352.253894,807.013798 358.646417,807.013798 C360.496885,807.013798 360.833333,807.347858 360.833333,809.185185 C360.833333,818.371823 360.833333,827.641975 360.833333,836.828613 C360.833333,838.66594 360.412773,839 358.562305,839 C351.833333,839 345.104361,839 338.375389,839 Z M345.833333,822.719832 L343.738977,822.719832 C343.738977,821.577209 343.738977,820.597818 343.738977,819.618427 C343.655203,816.925103 341.728395,814.721473 339.047619,814.150162 C335.529101,813.334003 332.010582,815.945712 331.926808,819.536811 C331.926808,820.597818 331.926808,821.577209 331.926808,822.638216 L330,822.638216 L330,833.166667 L345.833333,833.166667 L345.833333,822.719832 Z M333.93739,822.638216 C333.93739,821.413977 333.853616,820.271355 333.93739,819.128732 C334.188713,817.251566 336.031746,815.864096 337.958554,815.945712 C339.969136,816.108944 341.644621,817.57803 341.728395,819.536811 C341.728395,820.516202 341.728395,821.577209 341.728395,822.638216 L333.93739,822.638216 Z M335.947972,831.207885 C336.199295,830.31011 336.450617,829.493951 336.70194,828.677792 C336.869489,828.351329 336.785714,828.106481 336.534392,827.861633 C335.612875,827.045474 335.696649,825.821236 336.450617,825.086693 C337.204586,824.35215 338.461199,824.35215 339.215168,825.086693 C339.969136,825.902852 339.969136,827.045474 339.131393,827.861633 C338.880071,828.106481 338.880071,828.351329 338.963845,828.677792 C339.215168,829.493951 339.46649,830.228494 339.717813,831.044653 C339.717813,831.126269 339.717813,831.126269 339.717813,831.207885 L335.947972,831.207885 Z M350.335921,785.670838 C355.36531,787.733174 360.310876,789.878002 365.340265,791.940338 C366.01085,792.682779 365.927027,793.507713 365.507911,794.41514 C363.07704,800.024692 360.646168,805.634245 358.215297,811.32629 C358.131474,811.491277 358.047651,811.656264 358.047651,811.821251 C357.544712,812.728678 356.790303,813.058652 355.784426,812.646185 C354.694725,812.233718 353.605024,811.738757 352.515323,811.243797 C352.347676,811.161303 352.096207,811.07881 351.928561,810.996316 C351.760914,811.32629 351.677091,811.57377 351.593268,811.821251 C351.006506,813.141145 350.252098,813.471119 348.910927,812.893665 C344.384477,810.996316 339.94185,809.098968 335.4154,807.201619 C334.158053,806.706659 333.906583,805.964218 334.409522,804.726817 C336.924217,798.952278 339.438911,793.095246 341.953606,787.320707 C342.456545,786.165799 343.210953,785.835825 344.4683,786.330786 C345.474178,786.743253 346.480056,787.15572 347.485934,787.568187 C347.737403,787.65068 347.905049,787.733174 348.156519,787.898161 C348.491811,786.743253 348.827104,785.588345 350.335921,785.670838 M343.378599,787.733174 C340.780082,793.6727 338.265387,799.612225 335.666869,805.551751 C340.360966,807.531593 345.055062,809.511435 349.832982,811.491277 C351.844738,806.954139 353.77267,802.417001 355.784426,797.79737 C354.359432,797.219916 352.934438,796.642462 351.509445,795.982515 C352.096207,794.580127 352.682969,793.260232 353.269731,791.857844 C349.916805,790.455456 346.647702,789.053068 343.378599,787.733174 M355.197664,792.600285 C356.622657,793.177739 357.880004,793.6727 359.221175,794.332647 C359.472644,794.41514 359.640291,794.580127 359.89176,794.580127 C360.143229,794.580127 360.394699,794.497634 360.646168,794.41514 C360.562345,794.16766 360.478522,793.837686 360.310876,793.755193 C359.388821,793.342726 358.466766,793.012752 357.544712,792.600285 C356.874127,792.270311 356.287365,792.022831 355.616779,791.775351 C355.030017,791.610364 354.527078,791.362884 354.359432,790.702937 C354.275609,790.53795 353.940316,790.372963 353.77267,790.29047 C352.4315,789.630522 351.006506,789.053068 349.581512,788.475614 C349.749159,788.063147 349.916805,787.815667 350.084451,787.4032 C354.778548,789.383042 359.472644,791.362884 364.250564,793.342726 C361.652046,799.199758 359.137352,805.139284 356.538834,811.07881 C355.281487,810.583849 353.940316,810.006395 352.599146,809.428942 C353.102085,808.109047 353.688847,806.871646 354.275609,805.469258 C354.778548,805.634245 355.197664,805.881725 355.700602,806.046712 C355.952072,806.046712 356.203541,805.964218 356.455011,805.881725 C356.287365,805.634245 356.203541,805.304271 356.035895,805.221777 C355.616779,804.974297 355.11384,804.891804 354.610901,804.644324 C354.694725,804.396843 354.862371,804.149363 354.946194,803.901883 C355.281487,804.06687 355.616779,804.231856 355.952072,804.31435 C356.203541,804.396843 356.455011,804.231856 356.70648,804.149363 C356.538834,803.901883 356.455011,803.654403 356.287365,803.489416 C356.035895,803.324429 355.616779,803.241936 355.281487,803.076949 C355.700602,802.004534 356.119718,801.014613 356.622657,799.942199 C357.125596,800.107186 357.544712,800.354666 358.047651,800.519653 C358.29912,800.602146 358.55059,800.437159 358.802059,800.354666 C358.634413,800.189679 358.55059,799.859706 358.382943,799.777212 C357.963828,799.529732 357.460889,799.364745 357.125596,799.199758 C357.125596,798.457318 357.125596,797.79737 357.125596,797.137423 C357.712358,797.30241 358.29912,797.632383 358.969705,797.879864 C359.221175,798.04485 359.640291,798.209837 359.807937,797.79737 C359.975583,797.384903 359.640291,797.219916 359.304998,797.054929 C358.55059,796.724956 357.796181,796.394982 357.041773,796.147502 C356.455011,795.900022 356.119718,795.570048 356.035895,794.827607 C356.622657,795.075088 357.209419,795.322568 357.712358,795.570048 C357.963828,795.652541 358.131474,795.735035 358.382943,795.817528 C358.718236,795.982515 359.137352,796.065009 359.221175,795.652541 C359.304998,795.487555 358.969705,795.075088 358.802059,794.992594 C357.963828,794.580127 357.041773,794.250153 356.203541,793.92018 C355.616779,793.6727 355.281487,793.342726 355.197664,792.600285 Z M346.956094,798.078982 C345.683699,797.612082 344.411304,797.067366 343.054083,796.600466 C342.714778,796.444833 342.375473,796.367016 342.545125,795.977933 C342.714778,795.511033 343.13891,795.666667 343.393388,795.8223 C345.938178,796.833916 348.567794,797.845532 351.112583,798.857148 C351.451889,799.012782 351.791194,799.090598 351.621541,799.557498 C351.451889,800.024398 351.027757,799.790948 350.688452,799.635315 C349.58571,799.090598 348.228489,798.623699 346.956094,798.078982 Z M344.783279,802.834303 C343.896816,802.482394 343.010354,802.130486 342.123891,801.6906 C341.946599,801.602623 341.592014,801.162737 341.68066,800.986783 C341.769306,800.546897 342.212538,800.634874 342.478476,800.810829 C344.251401,801.602623 346.024326,802.30644 347.797251,803.010257 C348.151836,803.186211 348.506421,803.362166 348.240482,803.714074 C348.06319,804.15396 347.708605,803.978006 347.35402,803.890029 C346.556204,803.53812 345.669741,803.186211 344.783279,802.834303 Z M344.780516,804.424334 C343.895803,804.084867 343.01109,803.7454 342.126377,803.321066 C341.860963,803.236199 341.595549,802.811866 341.684021,802.642132 C341.772492,802.217798 342.214848,802.302665 342.568733,802.472399 C344.338159,803.236199 346.107585,803.915133 347.877011,804.678934 C348.053954,804.763801 348.407839,805.188134 348.319367,805.357868 C348.230896,805.782202 347.78854,805.697335 347.434654,805.527601 C346.549942,805.103268 345.665229,804.763801 344.780516,804.424334 Z M343.60047,805.333014 C342.814266,804.981315 342.028061,804.629615 341.241857,804.189991 C341.005996,804.102066 340.770134,803.750367 340.848755,803.486593 C340.927375,803.046968 341.241857,803.134893 341.556339,803.310743 C343.128747,804.102066 344.701156,804.805465 346.273565,805.596788 C346.430805,805.684713 346.509426,806.036413 346.666667,806.300187 C346.430805,806.388112 346.116324,806.563962 345.959083,806.476037 C345.172879,806.124337 344.386674,805.684713 343.60047,805.333014 Z M315,781.046784 C315.33248,780.878048 315.748079,780.624943 316.080559,780.540575 C320.652155,780.034366 325.14063,779.528156 329.712226,779.021947 C330.127825,778.937578 330.709665,779.106315 331.042145,779.35942 C333.037023,780.878048 334.948781,782.481044 336.860539,784.084041 C337.109899,784.337146 337.442378,784.758987 337.359259,785.012091 C337.276139,785.265196 336.777419,785.518301 336.444939,785.518301 C334.782541,785.771406 333.203263,785.855774 331.540864,786.108879 C330.709665,786.193247 330.294065,785.940142 330.294065,785.09646 C330.210945,783.493463 329.961586,781.974835 329.795346,780.371838 C325.38999,780.878048 320.984634,781.384257 316.579278,781.806098 C317.576718,790.664763 318.491037,799.607796 319.488476,808.466461 C325.80559,807.791515 332.122704,807.032201 338.522937,806.357255 C338.439818,805.935414 338.439818,805.597941 338.439818,805.260468 C337.857978,799.776533 337.276139,794.292597 336.694299,788.808662 C336.694299,788.555557 336.528059,788.218084 336.611179,787.96498 C336.694299,787.627507 336.943659,787.374402 337.193019,787.121297 C337.442378,787.374402 337.691738,787.627507 337.941098,787.880611 C338.024218,787.96498 338.024218,788.133716 338.024218,788.302453 C338.689177,794.292597 339.271017,800.282742 339.935976,806.272887 C340.102216,807.454042 340.019096,807.538411 338.772297,807.707147 C332.372063,808.382093 325.88871,809.141407 319.488476,809.816353 C319.072876,809.900721 318.657276,809.647616 318.241677,809.563248 L315,781.046784 Z M329.511245,793.365307 L329.511245,789.208533 L332.844578,789.208533 L332.844578,798.332173 C333.193578,798.295302 333.541958,798.257844 333.889573,798.219664 C334.402078,798.13898 334.914583,798.13898 335,798.300347 C335,798.461714 334.487495,798.542398 333.97499,798.623081 C332.478645,798.740866 331.073317,798.85865 329.692571,799.007812 L329.692571,799.19864 L328.047997,799.19864 C326.290126,799.359852 324.454156,799.594836 322.699883,799.75265 C322.187378,799.833333 321.589455,799.914017 321.674873,799.671966 C321.674873,799.429916 322.272795,799.429916 322.7853,799.349233 C323.214028,799.302143 323.643919,799.256154 324.074703,799.211006 L321.965913,799.211006 L321.965913,789.211006 L325.299246,789.211006 L325.299246,799.084943 C325.652203,799.04919 326.005582,799.013837 326.359238,798.978744 L326.359238,793.365307 L329.511245,793.365307 Z M329.692571,798.3752 L329.692571,798.651711 C330.608691,798.561543 331.523547,798.47018 332.434572,798.3752 L329.692571,798.3752 Z M331.540864,784.758987 C331.457744,783.577831 331.291504,782.481044 331.208384,781.552994 C332.372063,782.481044 333.618862,783.493463 334.782541,784.421514 C333.785102,784.505882 332.704543,784.59025 331.540864,784.758987 Z M320.645468,792.999935 C320.484101,791.206168 320.24205,789.326983 320.080683,787.533216 C320,787.020711 319.919317,786.422789 320.161367,786.508206 C320.403417,786.508206 320.403417,787.106129 320.484101,787.618633 C320.887518,791.291585 321.210252,795.049954 321.613669,798.722906 C321.694353,799.235411 321.694353,799.747916 321.532986,799.833333 C321.371619,799.833333 321.290936,799.320828 321.290936,798.808324 C320.968202,796.758304 320.806835,794.879119 320.645468,792.999935 Z" id="almacenamiento_aduana"></path>
        </g>
    </g>
</svg>