<?xml version="1.0" encoding="UTF-8"?>
<svg width="77px" height="60px" viewBox="0 0 77 60" version="1.1" xmlns="http://www.w3.org/2000/svg" xmlns:xlink="http://www.w3.org/1999/xlink">
    <!-- Generator: Sketch 51.1 (57501) - http://www.bohemiancoding.com/sketch -->
    <title>cafe</title>
    <desc>Created with Sketch.</desc>
    <defs></defs>
    <g id="Page-1" stroke="none" stroke-width="1" fill="none" fill-rule="evenodd">
        <g id="Artboard" transform="translate(-1178.000000, -779.000000)" fill="#FFFFFF" fill-rule="nonzero">
            <path d="M1223.81818,805.181818 C1224.57713,802.018182 1225.11923,799.4 1225.87817,796.454545 C1237.26232,797.109091 1245.17701,803.327273 1251.03172,812.490909 C1254.6096,818.163636 1255.80222,824.490909 1252.11593,831.363636 C1251.03172,830.381818 1250.16436,829.836364 1249.62225,828.963636 C1242.57492,819.254545 1234.87707,810.309091 1223.81818,805.181818 Z M1178.00224,804.111652 C1178.44331,797.101875 1183.07456,791.296904 1189.1393,786.258627 C1195.75537,780.891767 1203.14332,777.605934 1211.96475,779.577433 C1212.40582,779.686961 1212.8469,779.796489 1213.28797,779.906017 C1218.91163,781.548933 1219.68351,783.410905 1216.48574,788.339654 C1209.42859,798.744792 1200.16609,806.849846 1188.91876,812.435762 C1181.86161,815.94065 1177.89197,813.202456 1178.00224,804.111652 Z M1210.72727,820.643184 C1214.98324,815.995342 1218.91183,811.790152 1222.94954,807.363636 C1232.33449,813.22877 1240.95556,820.532521 1247.17582,830.492182 C1250.12226,835.140024 1249.46749,837.353282 1244.01112,838.349248 C1239.75516,839.123888 1234.95355,839.345214 1230.91584,838.238585 C1221.64001,835.582675 1215.09237,829.053564 1210.72727,820.643184 Z M1221.44223,787.727273 C1224.35266,792.508465 1224.24486,796.746341 1222.95134,801.201543 C1219.93313,811.633236 1208.39923,821.738938 1197.61988,822.608246 C1194.81725,822.825573 1191.79903,821.738938 1188.9964,820.869631 C1188.02626,820.54364 1186.94833,819.131015 1186.73274,818.04438 C1186.62495,817.501063 1188.13406,816.305765 1189.21199,815.871111 C1197.72767,812.39388 1205.05763,807.286697 1211.09406,800.223572 C1213.46552,797.398321 1215.62139,794.464408 1217.99284,791.639158 C1218.96298,790.443859 1220.04092,789.248561 1221.44223,787.727273 Z" id="cafe"></path>
        </g>
    </g>
</svg>