<?xml version="1.0" encoding="UTF-8"?>
<svg width="43px" height="45px" viewBox="0 0 43 45" version="1.1" xmlns="http://www.w3.org/2000/svg" xmlns:xlink="http://www.w3.org/1999/xlink">
    <!-- Generator: Sketch 51.1 (57501) - http://www.bohemiancoding.com/sketch -->
    <title>coffee</title>
    <desc>Created with Sketch.</desc>
    <defs></defs>
    <g id="Page-1" stroke="none" stroke-width="1" fill="none" fill-rule="evenodd">
        <g id="Artboard" transform="translate(-1202.000000, -1674.000000)" fill="#2C6149" fill-rule="nonzero">
            <path d="M1224.8,1675.2 C1222.9,1674.6 1220.9,1674.5 1218.9,1674.9 C1213.4,1675.9 1208.8,1678.6 1205.3,1682.9 C1203.6,1684.9 1202.5,1687.2 1202.3,1689.9 C1202.1,1692.6 1203.4,1695 1205.7,1696.2 C1207.2,1697 1208.9,1697.2 1210.6,1697.3 C1211.1,1697.3 1211.6,1697.2 1212.1,1697.2 C1212.6,1697.1 1213.1,1697.1 1213.7,1696.9 C1218.1,1695.9 1221.8,1693.8 1225,1690.6 C1227.1,1688.5 1228.7,1686 1229.3,1683 C1230,1679.4 1228.3,1676.3 1224.8,1675.2 M1227.8,1679.9 C1227.1,1681 1226.1,1681.9 1225,1682.7 C1222.2,1684.5 1219.3,1685.9 1216,1686.3 C1213.8,1686.5 1211.7,1687 1209.7,1688 C1207.1,1689.2 1204.9,1690.9 1202.9,1693 C1203.4,1691.8 1204.2,1690.7 1205.2,1689.9 C1208.3,1687.4 1211.9,1686 1215.9,1685.6 C1218.4,1685.4 1220.7,1684.4 1222.8,1683.2 C1224.1,1682.4 1225.4,1681.5 1226.6,1680.5 C1227.2,1680 1227.7,1679.3 1228.3,1678.6 C1228.2,1679 1228.1,1679.5 1227.8,1679.9 M1237,1696.9 C1235.9,1693.7 1233.1,1692.1 1229.8,1692.8 C1228.3,1693.1 1226.9,1693.7 1225.7,1694.6 C1220.4,1698.5 1217.6,1703.7 1217.1,1710.2 C1217.1,1711.6 1217.3,1713 1217.8,1714.3 C1218.9,1717.1 1221.1,1718.5 1224,1718.4 C1225.8,1718.3 1227.3,1717.6 1228.8,1716.6 C1233.1,1713.7 1235.7,1709.6 1237,1704.6 C1237.8,1702 1237.9,1699.4 1237,1696.9 M1234.4,1695.9 C1234.2,1697.4 1233.5,1698.7 1232.8,1699.9 C1231.3,1702.4 1229.5,1704.5 1227.1,1706.1 C1224.4,1708 1222.5,1710.6 1221.2,1713.6 C1220.8,1714.6 1220.5,1715.6 1220.1,1716.7 C1220,1715.5 1220.1,1714.4 1220.5,1713.4 C1221.8,1710.2 1223.8,1707.4 1226.7,1705.4 C1229.6,1703.4 1231.7,1700.7 1233.1,1697.5 C1233.5,1696.7 1233.8,1695.8 1234.1,1694.9 C1234.2,1694.6 1234.2,1694.2 1234.2,1693.9 C1234.6,1694.5 1234.5,1695.2 1234.4,1695.9 M1241.8,1682 C1240.8,1680.7 1239.5,1679.6 1237.9,1679 C1235.9,1678.3 1234,1679 1233,1680.9 C1232.3,1682.1 1232.1,1683.4 1232.1,1684.8 C1232.1,1687 1232.7,1689 1233.8,1690.9 C1234.9,1692.9 1236.3,1694.5 1238.4,1695.5 C1240.8,1696.6 1243.1,1695.8 1244.2,1693.3 C1244.6,1692.3 1244.8,1691.2 1244.8,1689.9 C1244.6,1687.1 1243.6,1684.4 1241.8,1682 M1239.6,1694.2 C1238.4,1692.2 1237.8,1690 1238,1687.6 C1238.2,1685.5 1237.7,1683.6 1236.8,1681.7 C1236.4,1680.8 1236.1,1679.8 1235.2,1679.2 C1235.2,1679.2 1235.3,1679.1 1235.3,1679.1 C1235.6,1679.3 1236,1679.5 1236.3,1679.8 C1237.2,1680.5 1237.6,1681.5 1237.9,1682.5 C1238.5,1684.2 1238.8,1686 1238.7,1687.8 C1238.6,1689.9 1239.1,1691.8 1240.1,1693.7 C1240.5,1694.3 1240.8,1695 1241.2,1695.7 C1240.6,1695.3 1240,1694.8 1239.6,1694.2" id="coffee"></path>
        </g>
    </g>
</svg>