<?xml version="1.0" encoding="UTF-8"?>
<svg width="46px" height="42px" viewBox="0 0 46 42" version="1.1" xmlns="http://www.w3.org/2000/svg" xmlns:xlink="http://www.w3.org/1999/xlink">
    <!-- Generator: Sketch 51.1 (57501) - http://www.bohemiancoding.com/sketch -->
    <title>comercial</title>
    <desc>Created with Sketch.</desc>
    <defs></defs>
    <g id="Page-1" stroke="none" stroke-width="1" fill="none" fill-rule="evenodd">
        <g id="Artboard" transform="translate(-792.000000, -1679.000000)" fill="#2C6149" fill-rule="nonzero">
            <path d="M837.5,1689.5 C835.5,1694 833.5,1698.4 831.5,1702.9 C830.8,1704.6 830.4,1706.8 829.1,1707.7 C827.8,1708.6 825.6,1708.1 823.8,1708.1 C818.5,1708.1 813.3,1708.1 808,1708.1 C806.7,1708.1 806.2,1707.7 805.8,1706.5 C803.7,1698.8 801.5,1691.1 799.4,1683.4 C799.3,1682.9 799.1,1682.4 798.9,1681.8 C797.3,1681.8 795.6,1681.9 794,1681.8 C793.5,1681.8 793,1681.2 792.5,1680.9 C793,1680.5 793.5,1679.9 794.1,1679.8 C795.6,1679.6 797.1,1679.8 798.6,1679.7 C800.1,1679.6 800.7,1680.2 801.1,1681.6 C803.2,1689.3 805.3,1696.9 807.4,1704.6 C807.7,1705.9 808.3,1706.2 809.5,1706.2 C815.1,1706.1 820.8,1706.2 826.4,1706.2 C827.2,1706.2 827.9,1706.2 828.3,1705.3 C830.3,1700.6 832.4,1695.9 834.4,1691.3 C834.5,1691.1 834.5,1690.8 834.7,1690.4 L832.9,1690.4 C826.4,1690.4 820,1690.4 813.5,1690.4 C812.7,1690.4 811.7,1690.5 811.7,1689.4 C811.7,1688.2 812.7,1688.3 813.5,1688.3 C820.8,1688.3 828.1,1688.3 835.4,1688.3 C836.1,1688.3 836.8,1688.6 837.5,1688.8 L837.5,1689.5 Z M804.7,1720.1 C803.4,1719.3 802.3,1718.5 802.3,1716.8 C802.3,1715.3 803.4,1714 804.9,1713.7 C806.3,1713.4 807.7,1714.2 808.4,1715.5 C809,1716.8 808.7,1718.3 807.5,1719.3 C807.1,1719.6 806.6,1719.9 806.2,1720.1 L804.7,1720.1 Z M829.1,1720.1 C826.9,1718.9 826.1,1717.5 826.8,1715.8 C827.3,1714.5 828.3,1713.7 829.7,1713.7 C831.1,1713.7 832.2,1714.3 832.7,1715.6 C833.2,1716.9 833.1,1718.3 831.9,1719.3 C831.5,1719.6 831.1,1719.9 830.7,1720.2 L829.1,1720.2 L829.1,1720.1 Z M823,1692.7 L826.2,1692.7 L826.2,1703.8 L823,1703.8 L823,1692.7 Z M817.3,1695.9 L820.5,1695.9 L820.5,1703.9 L817.3,1703.9 L817.3,1695.9 Z M811.3,1699.4 L814.5,1699.4 L814.5,1703.8 L811.3,1703.8 L811.3,1699.4 Z" id="comercial"></path>
        </g>
    </g>
</svg>