<?xml version="1.0" encoding="UTF-8"?>
<svg width="72px" height="60px" viewBox="0 0 72 60" version="1.1" xmlns="http://www.w3.org/2000/svg" xmlns:xlink="http://www.w3.org/1999/xlink">
    <!-- Generator: Sketch 51.1 (57501) - http://www.bohemiancoding.com/sketch -->
    <title>despachos</title>
    <desc>Created with Sketch.</desc>
    <defs></defs>
    <g id="Page-1" stroke="none" stroke-width="1" fill="none" fill-rule="evenodd">
        <g id="Artboard" transform="translate(-929.000000, -779.000000)" fill="#FFFFFF" fill-rule="nonzero">
            <path d="M929,809.947368 L929,809.868421 L946.492366,809.868421 L946.492366,788.552632 C946.492366,784.684211 950.747266,784.526316 950.747266,784.526316 L964.772677,784.526316 C967.372893,784.526316 968.318427,787.605263 968.318427,787.605263 L968.318427,820.526316 C968.318427,820.526316 969.815521,820.289474 963.511966,820.289474 C957.20841,820.289474 953.741455,828.263158 953.741455,828.263158 L952.165566,828.263158 C952.165566,828.263158 948.14705,819.578947 940.819166,819.578947 C933.491283,819.578947 929,828.736842 929,828.736842 L929,809.947368 Z M947.947368,831.894737 C947.947368,835.770335 944.798445,839 940.842105,839 C936.966507,839 933.736842,835.851077 933.736842,831.894737 C933.736842,828.019139 936.885766,824.789474 940.842105,824.789474 C944.798445,824.870215 947.947368,828.019139 947.947368,831.894737 Z M972.421053,831.894737 C972.421053,835.770335 969.272129,839 965.315789,839 C961.440191,839 958.210526,835.851077 958.210526,831.894737 C958.210526,828.019139 961.35945,824.789474 965.315789,824.789474 C969.272129,824.870215 972.421053,828.019139 972.421053,831.894737 Z M979.526316,809 L983.789474,809 L983.789474,813.864335 L987.973684,813.864335 L987.973684,809 L992.947368,809 L992.947368,821.631579 L979.526316,821.631579 L979.526316,809 Z M979.526316,794.789474 L983.789474,794.789474 L983.789474,799.732265 L987.973684,799.732265 L987.973684,794.789474 L992.947368,794.789474 L992.947368,807.421053 L979.526316,807.421053 L979.526316,794.789474 Z M979.526316,779.789474 L983.789474,779.789474 L983.789474,784.653808 L987.973684,784.653808 L987.973684,779.789474 L992.947368,779.789474 L992.947368,792.421053 L979.526316,792.421053 L979.526316,779.789474 Z M971.631579,780.128184 C971.631579,778.623939 974.011569,778.623939 974.011569,780.128184 L974.011569,826.759806 L972.821574,825.572243 L998.922136,825.572243 C1000.42946,825.572243 1000.42946,827.947368 998.922136,827.947368 L972.821574,827.947368 C972.18691,827.947368 971.631579,827.393173 971.631579,826.759806 L971.631579,780.128184 Z" id="despachos"></path>
        </g>
    </g>
</svg>