<?xml version="1.0" encoding="UTF-8"?>
<svg width="38px" height="22px" viewBox="0 0 38 22" version="1.1" xmlns="http://www.w3.org/2000/svg" xmlns:xlink="http://www.w3.org/1999/xlink">
    <!-- Generator: Sketch 51.1 (57501) - http://www.bohemiancoding.com/sketch -->
    <title>Group</title>
    <desc>Created with Sketch.</desc>
    <defs></defs>
    <g id="Page-1" stroke="none" stroke-width="1" fill="none" fill-rule="evenodd">
        <g id="Artboard" transform="translate(-1304.000000, -101.000000)" fill-rule="nonzero">
            <g id="Group" transform="translate(1304.000000, 101.000000)">
                <rect id="Rectangle-path" fill="#E75C24" x="0.7" y="20.3" width="36.8" height="1.6"></rect>
                <rect id="Rectangle-path" fill="#FFFFFF" x="0.7" y="18.6" width="36.8" height="1.6"></rect>
                <rect id="Rectangle-path" fill="#E75C24" x="0.7" y="17" width="36.8" height="1.6"></rect>
                <rect id="Rectangle-path" fill="#FFFFFF" x="0.7" y="15.3" width="36.8" height="1.6"></rect>
                <rect id="Rectangle-path" fill="#E75C24" x="0.7" y="13.7" width="36.8" height="1.7"></rect>
                <rect id="Rectangle-path" fill="#FFFFFF" x="0.7" y="12" width="36.8" height="1.6"></rect>
                <rect id="Rectangle-path" fill="#E75C24" x="0.7" y="10.4" width="36.8" height="1.7"></rect>
                <rect id="Rectangle-path" fill="#FFFFFF" x="0.7" y="8.7" width="36.8" height="1.6"></rect>
                <rect id="Rectangle-path" fill="#E75C24" x="0.7" y="7.1" width="36.8" height="1.6"></rect>
                <rect id="Rectangle-path" fill="#FFFFFF" x="0.7" y="5.4" width="36.8" height="1.7"></rect>
                <rect id="Rectangle-path" fill="#E75C24" x="0.7" y="3.8" width="36.8" height="1.6"></rect>
                <rect id="Rectangle-path" fill="#FFFFFF" x="0.7" y="2.1" width="36.8" height="1.6"></rect>
                <rect id="Rectangle-path" fill="#E75C24" x="0.7" y="0.5" width="36.8" height="1.7"></rect>
                <rect id="Rectangle-path" fill="#213F6F" x="0.7" y="0.5" width="16.8" height="11.6"></rect>
                <polygon id="Shape" fill="#FFFFFF" points="2.2 1.7 2.3 2.2 2.8 2.2 2.4 2.4 2.6 2.9 2.2 2.6 1.8 2.9 2 2.4 1.6 2.2 2.1 2.2"></polygon>
                <polygon id="Shape" fill="#FFFFFF" points="2.2 3.7 2.3 4.1 2.8 4.1 2.4 4.4 2.6 4.8 2.2 4.5 1.8 4.8 2 4.4 1.6 4.1 2.1 4.1"></polygon>
                <polygon id="Shape" fill="#FFFFFF" points="2.2 5.6 2.3 6 2.8 6 2.4 6.3 2.6 6.7 2.2 6.5 1.8 6.7 2 6.3 1.6 6 2.1 6"></polygon>
                <polygon id="Shape" fill="#FFFFFF" points="2.2 7.5 2.3 8 2.8 8 2.4 8.2 2.6 8.7 2.2 8.4 1.8 8.7 2 8.2 1.6 8 2.1 8"></polygon>
                <polygon id="Shape" fill="#FFFFFF" points="2.2 9.4 2.3 9.9 2.8 9.9 2.4 10.2 2.6 10.6 2.2 10.3 1.8 10.6 2 10.2 1.6 9.9 2.1 9.9"></polygon>
                <polygon id="Shape" fill="#FFFFFF" points="3.5 2.8 3.7 3.2 4.1 3.2 3.8 3.5 3.9 3.9 3.5 3.6 3.2 3.9 3.3 3.5 2.9 3.2 3.4 3.2"></polygon>
                <polygon id="Shape" fill="#FFFFFF" points="3.5 4.7 3.7 5.1 4.1 5.1 3.8 5.4 3.9 5.8 3.5 5.6 3.2 5.8 3.3 5.4 2.9 5.1 3.4 5.1"></polygon>
                <polygon id="Shape" fill="#FFFFFF" points="3.5 6.6 3.7 7 4.1 7 3.8 7.3 3.9 7.8 3.5 7.5 3.2 7.8 3.3 7.3 2.9 7 3.4 7"></polygon>
                <polygon id="Shape" fill="#FFFFFF" points="3.5 8.5 3.7 9 4.1 9 3.8 9.2 3.9 9.7 3.5 9.4 3.2 9.7 3.3 9.2 2.9 9 3.4 9"></polygon>
                <polygon id="Shape" fill="#FFFFFF" points="4.9 1.7 5 2.2 5.5 2.2 5.1 2.4 5.3 2.9 4.9 2.6 4.5 2.9 4.7 2.4 4.3 2.2 4.8 2.2"></polygon>
                <polygon id="Shape" fill="#FFFFFF" points="4.9 3.7 5 4.1 5.5 4.1 5.1 4.4 5.3 4.8 4.9 4.5 4.5 4.8 4.7 4.4 4.3 4.1 4.8 4.1"></polygon>
                <polygon id="Shape" fill="#FFFFFF" points="4.9 5.6 5 6 5.5 6 5.1 6.3 5.3 6.7 4.9 6.5 4.5 6.7 4.7 6.3 4.3 6 4.8 6"></polygon>
                <polygon id="Shape" fill="#FFFFFF" points="4.9 7.5 5 8 5.5 8 5.1 8.2 5.3 8.7 4.9 8.4 4.5 8.7 4.7 8.2 4.3 8 4.8 8"></polygon>
                <polygon id="Shape" fill="#FFFFFF" points="4.9 9.4 5 9.9 5.5 9.9 5.1 10.2 5.3 10.6 4.9 10.3 4.5 10.6 4.7 10.2 4.3 9.9 4.8 9.9"></polygon>
                <polygon id="Shape" fill="#FFFFFF" points="6.2 2.8 6.4 3.2 6.8 3.2 6.5 3.5 6.6 3.9 6.2 3.6 5.9 3.9 6 3.5 5.6 3.2 6.1 3.2"></polygon>
                <polygon id="Shape" fill="#FFFFFF" points="6.2 4.7 6.4 5.1 6.8 5.1 6.5 5.4 6.6 5.8 6.2 5.6 5.9 5.8 6 5.4 5.6 5.1 6.1 5.1"></polygon>
                <polygon id="Shape" fill="#FFFFFF" points="6.2 6.6 6.4 7 6.8 7 6.5 7.3 6.6 7.8 6.2 7.5 5.9 7.8 6 7.3 5.6 7 6.1 7"></polygon>
                <polygon id="Shape" fill="#FFFFFF" points="6.2 8.5 6.4 9 6.8 9 6.5 9.2 6.6 9.7 6.2 9.4 5.9 9.7 6 9.2 5.6 9 6.1 9"></polygon>
                <polygon id="Shape" fill="#FFFFFF" points="7.6 1.7 7.7 2.2 8.2 2.2 7.8 2.4 8 2.9 7.6 2.6 7.2 2.9 7.4 2.4 7 2.2 7.5 2.2"></polygon>
                <polygon id="Shape" fill="#FFFFFF" points="7.6 3.7 7.7 4.1 8.2 4.1 7.8 4.4 8 4.8 7.6 4.5 7.2 4.8 7.4 4.4 7 4.1 7.5 4.1"></polygon>
                <polygon id="Shape" fill="#FFFFFF" points="7.6 5.6 7.7 6 8.2 6 7.8 6.3 8 6.7 7.6 6.5 7.2 6.7 7.4 6.3 7 6 7.5 6"></polygon>
                <polygon id="Shape" fill="#FFFFFF" points="7.6 7.5 7.7 8 8.2 8 7.8 8.2 8 8.7 7.6 8.4 7.2 8.7 7.4 8.2 7 8 7.5 8"></polygon>
                <polygon id="Shape" fill="#FFFFFF" points="7.6 9.4 7.7 9.9 8.2 9.9 7.8 10.2 8 10.6 7.6 10.3 7.2 10.6 7.4 10.2 7 9.9 7.5 9.9"></polygon>
                <polygon id="Shape" fill="#FFFFFF" points="8.9 2.8 9.1 3.2 9.5 3.2 9.2 3.5 9.3 3.9 8.9 3.6 8.6 3.9 8.7 3.5 8.3 3.2 8.8 3.2"></polygon>
                <polygon id="Shape" fill="#FFFFFF" points="8.9 4.7 9.1 5.1 9.5 5.1 9.2 5.4 9.3 5.8 8.9 5.6 8.6 5.8 8.7 5.4 8.3 5.1 8.8 5.1"></polygon>
                <polygon id="Shape" fill="#FFFFFF" points="8.9 6.6 9.1 7 9.5 7 9.2 7.3 9.3 7.8 8.9 7.5 8.6 7.8 8.7 7.3 8.3 7 8.8 7"></polygon>
                <polygon id="Shape" fill="#FFFFFF" points="8.9 8.5 9.1 9 9.5 9 9.2 9.2 9.3 9.7 8.9 9.4 8.6 9.7 8.7 9.2 8.3 9 8.8 9"></polygon>
                <polygon id="Shape" fill="#FFFFFF" points="10.3 1.7 10.4 2.2 10.9 2.2 10.5 2.4 10.7 2.9 10.3 2.6 9.9 2.9 10.1 2.4 9.7 2.2 10.2 2.2"></polygon>
                <polygon id="Shape" fill="#FFFFFF" points="10.3 3.7 10.4 4.1 10.9 4.1 10.5 4.4 10.7 4.8 10.3 4.5 9.9 4.8 10.1 4.4 9.7 4.1 10.2 4.1"></polygon>
                <polygon id="Shape" fill="#FFFFFF" points="10.3 5.6 10.4 6 10.9 6 10.5 6.3 10.7 6.7 10.3 6.5 9.9 6.7 10.1 6.3 9.7 6 10.2 6"></polygon>
                <polygon id="Shape" fill="#FFFFFF" points="10.3 7.5 10.4 8 10.9 8 10.5 8.2 10.7 8.7 10.3 8.4 9.9 8.7 10.1 8.2 9.7 8 10.2 8"></polygon>
                <polygon id="Shape" fill="#FFFFFF" points="10.3 9.4 10.4 9.9 10.9 9.9 10.5 10.2 10.7 10.6 10.3 10.3 9.9 10.6 10.1 10.2 9.7 9.9 10.2 9.9"></polygon>
                <polygon id="Shape" fill="#FFFFFF" points="11.6 2.8 11.8 3.2 12.3 3.2 11.9 3.5 12 3.9 11.6 3.6 11.3 3.9 11.4 3.5 11 3.2 11.5 3.2"></polygon>
                <polygon id="Shape" fill="#FFFFFF" points="11.6 4.7 11.8 5.1 12.3 5.1 11.9 5.4 12 5.8 11.6 5.6 11.3 5.8 11.4 5.4 11 5.1 11.5 5.1"></polygon>
                <polygon id="Shape" fill="#FFFFFF" points="11.6 6.6 11.8 7 12.3 7 11.9 7.3 12 7.8 11.6 7.5 11.3 7.8 11.4 7.3 11 7 11.5 7"></polygon>
                <polygon id="Shape" fill="#FFFFFF" points="11.6 8.5 11.8 9 12.3 9 11.9 9.2 12 9.7 11.6 9.4 11.3 9.7 11.4 9.2 11 9 11.5 9"></polygon>
                <polygon id="Shape" fill="#FFFFFF" points="13 1.7 13.2 2.2 13.6 2.2 13.2 2.4 13.4 2.9 13 2.6 12.6 2.9 12.8 2.4 12.4 2.2 12.9 2.2"></polygon>
                <polygon id="Shape" fill="#FFFFFF" points="13 3.7 13.2 4.1 13.6 4.1 13.2 4.4 13.4 4.8 13 4.5 12.6 4.8 12.8 4.4 12.4 4.1 12.9 4.1"></polygon>
                <polygon id="Shape" fill="#FFFFFF" points="13 5.6 13.2 6 13.6 6 13.2 6.3 13.4 6.7 13 6.5 12.6 6.7 12.8 6.3 12.4 6 12.9 6"></polygon>
                <polygon id="Shape" fill="#FFFFFF" points="13 7.5 13.2 8 13.6 8 13.2 8.2 13.4 8.7 13 8.4 12.6 8.7 12.8 8.2 12.4 8 12.9 8"></polygon>
                <polygon id="Shape" fill="#FFFFFF" points="13 9.4 13.2 9.9 13.6 9.9 13.2 10.2 13.4 10.6 13 10.3 12.6 10.6 12.8 10.2 12.4 9.9 12.9 9.9"></polygon>
                <polygon id="Shape" fill="#FFFFFF" points="14.4 2.8 14.5 3.2 15 3.2 14.6 3.5 14.7 3.9 14.4 3.6 14 3.9 14.1 3.5 13.8 3.2 14.2 3.2"></polygon>
                <polygon id="Shape" fill="#FFFFFF" points="14.4 4.7 14.5 5.1 15 5.1 14.6 5.4 14.7 5.8 14.4 5.6 14 5.8 14.1 5.4 13.8 5.1 14.2 5.1"></polygon>
                <polygon id="Shape" fill="#FFFFFF" points="14.4 6.6 14.5 7 15 7 14.6 7.3 14.7 7.8 14.4 7.5 14 7.8 14.1 7.3 13.8 7 14.2 7"></polygon>
                <polygon id="Shape" fill="#FFFFFF" points="14.4 8.5 14.5 9 15 9 14.6 9.2 14.7 9.7 14.4 9.4 14 9.7 14.1 9.2 13.8 9 14.2 9"></polygon>
                <polygon id="Shape" fill="#FFFFFF" points="15.7 1.7 15.9 2.2 16.3 2.2 15.9 2.4 16.1 2.9 15.7 2.6 15.3 2.9 15.5 2.4 15.1 2.2 15.6 2.2"></polygon>
                <polygon id="Shape" fill="#FFFFFF" points="15.7 3.7 15.9 4.1 16.3 4.1 15.9 4.4 16.1 4.8 15.7 4.5 15.3 4.8 15.5 4.4 15.1 4.1 15.6 4.1"></polygon>
                <polygon id="Shape" fill="#FFFFFF" points="15.7 5.6 15.9 6 16.3 6 15.9 6.3 16.1 6.7 15.7 6.5 15.3 6.7 15.5 6.3 15.1 6 15.6 6"></polygon>
                <polygon id="Shape" fill="#FFFFFF" points="15.7 7.5 15.9 8 16.3 8 15.9 8.2 16.1 8.7 15.7 8.4 15.3 8.7 15.5 8.2 15.1 8 15.6 8"></polygon>
                <polygon id="Shape" fill="#FFFFFF" points="15.7 9.4 15.9 9.9 16.3 9.9 15.9 10.2 16.1 10.6 15.7 10.3 15.3 10.6 15.5 10.2 15.1 9.9 15.6 9.9"></polygon>
            </g>
        </g>
    </g>
</svg>