<?xml version="1.0" encoding="UTF-8"?>
<svg width="65px" height="60px" viewBox="0 0 65 60" version="1.1" xmlns="http://www.w3.org/2000/svg" xmlns:xlink="http://www.w3.org/1999/xlink">
    <!-- Generator: Sketch 51.1 (57501) - http://www.bohemiancoding.com/sketch -->
    <title>gestion_transp</title>
    <desc>Created with Sketch.</desc>
    <defs></defs>
    <g id="Page-1" stroke="none" stroke-width="1" fill="none" fill-rule="evenodd">
        <g id="Artboard" transform="translate(-701.000000, -779.000000)" fill="#FFFFFF" fill-rule="nonzero">
            <path d="M711.942453,813.125 L715.111251,813.125 L715.111251,811.925 C714.50767,811.85 713.979537,811.85 713.375957,811.775 L713.375957,800 L738.5,800 L738.5,811.925 L735.557544,811.925 L735.557544,813.2 L738.424552,813.2 L738.424552,815.75 L734.953964,815.75 C734.124041,812.9 732.765984,811.7 730.502557,811.775 C728.390025,811.85 727.107416,813.125 726.503835,815.75 L711.791558,815.75 C711.187977,813.125 709.754473,811.775 707.566493,811.775 C705.378514,811.775 704.020457,813.125 703.416877,815.75 L701.002554,815.75 C701.153449,812.975 700.625316,810.125 701.681582,807.35 C703.190534,803.6 701.907925,804.2 706.132989,804.125 C707.415598,804.125 708.698207,804.125 709.980816,804.125 C711.41432,804.2 711.942453,804.65 711.942453,806.075 C711.942453,808.025 711.942453,809.975 711.942453,811.925 C711.867005,812.375 711.867005,812.75 711.942453,813.125 M702.888744,809.45 L709.603578,809.45 L709.603578,805.775 C708.019179,805.775 706.585675,805.775 705.076723,805.775 C704.925828,805.775 704.699485,805.7 704.54859,805.775 C704.322248,805.85 704.095905,805.925 704.020457,806.075 C703.643219,807.2 703.265981,808.25 702.888744,809.45 M758,832.286885 C758,833.245902 758,833.983607 757.849192,834.647541 C757.849192,837.229508 756.114901,839 753.475763,839 C742.768402,839 731.985637,839 721.202873,839 C720.825853,839 720.373429,838.92623 720.222621,838.704918 C718.86535,836.639344 717.508079,834.57377 716,832.286885 L746.010772,832.286885 L746.010772,828.672131 C745.709156,828.598361 745.40754,828.52459 745.105925,828.45082 L745.105925,826.163934 L747.745063,826.163934 L747.745063,821 C748.27289,821 748.64991,821.07377 749.177738,821.07377 L749.177738,826.163934 C749.931777,826.163934 750.535009,826.237705 751.138241,826.237705 C751.213645,826.901639 751.213645,827.491803 751.289048,828.081967 L752.721724,828.081967 L752.721724,823.95082 L754.75763,823.95082 L754.75763,832.286885 L758,832.286885 Z M723.5,828.5 L728.75,828.5 L728.75,831.5 L723.5,831.5 L723.5,828.5 Z M723.5,824.75 L728.75,824.75 L728.75,827.75 L723.5,827.75 L723.5,824.75 Z M735.5,824.75 L740.75,824.75 L740.75,827.75 L735.5,827.75 L735.5,824.75 Z M729.5,824.75 L734.75,824.75 L734.75,827.75 L729.5,827.75 L729.5,824.75 Z M735.5,828.5 L740.75,828.5 L740.75,831.5 L735.5,831.5 L735.5,828.5 Z M729.5,828.5 L734.75,828.5 L734.75,831.5 L729.5,831.5 L729.5,828.5 Z M711.5,816.836738 C711.5,818.662436 709.991176,820.170622 708.164706,820.25 C706.258824,820.25 704.75,818.741815 704.75,816.836738 C704.75,815.090418 706.338235,813.502855 708.164706,813.502855 C709.991176,813.423476 711.5,815.01104 711.5,816.836738 M708.164706,815.169796 C707.291176,815.169796 706.576471,815.8842 706.497059,816.75736 C706.497059,817.63052 707.211765,818.424302 708.085294,818.424302 C708.958824,818.50368 709.832353,817.709898 709.752941,816.75736 C709.752941,815.963578 709.038235,815.249175 708.164706,815.169796 M734,816.87352 C734,818.677961 732.491786,820.247041 730.666053,820.247041 C728.84032,820.325495 727.252726,818.834869 727.252726,816.87352 C727.173346,815.147533 728.84032,813.578454 730.586673,813.5 C732.412406,813.578454 734,815.147533 734,816.87352 Z M730.507293,818.521053 C731.38047,818.599507 732.174267,817.971876 732.253647,817.108882 C732.333026,816.245889 731.618609,815.382895 730.745433,815.304441 C729.872256,815.225987 729.078459,815.932073 728.999079,816.795066 C728.9197,817.65806 729.634117,818.442599 730.507293,818.521053 Z M738.435754,795.915764 C740.147033,794.273154 741.783908,792.779872 743.643994,790.987934 C742.081522,790.987934 740.816663,791.137263 739.551805,790.987934 C737.766123,790.689278 735.906037,790.390622 734.194758,789.793309 C732.409076,789.195997 731.218621,787.777379 730.623394,785.985441 C730.10257,784.566824 729.581746,783.22287 729.060922,781.804253 C728.837712,781.20694 728.391291,780.609628 729.284132,780.086979 C730.176973,779.56433 730.697797,779.638995 731.367428,780.385635 C732.632287,781.804253 734.045952,783.073542 735.385213,784.49216 C736.054844,785.164136 736.650072,785.462793 737.617316,785.462793 C745.504079,785.462793 753.465246,785.462793 761.352009,785.462793 C762.691271,785.462793 763.881725,785.761449 764.774567,786.806746 C765.741811,787.852043 765.741811,788.748012 764.774567,789.793309 C763.881725,790.763942 762.691271,791.211927 761.352009,791.211927 C759.045503,791.211927 756.738997,791.137263 754.43249,791.211927 C753.390842,791.286591 752.274791,791.510583 751.38195,791.958568 C748.331409,793.451849 745.280869,794.945131 742.379135,796.662404 C740.816663,797.334381 739.775015,796.961061 738.435754,795.915764 Z M750.425926,784.25 C747.981481,784.25 745.611111,784.25 743.166667,784.25 C742.87037,784.25 742.5,784.095061 742.351852,783.940123 C741.018519,782.700614 739.759259,781.461104 738.5,780.221595 C739.907407,778.827147 740.574074,778.672209 742.12963,779.524371 C744.944444,780.996288 747.685185,782.545675 750.5,784.017592 C750.5,784.095061 750.425926,784.172531 750.425926,784.25 Z" id="gestion_transp"></path>
        </g>
    </g>
</svg>