<?xml version="1.0" encoding="UTF-8"?>
<svg width="73px" height="60px" viewBox="0 0 73 60" version="1.1" xmlns="http://www.w3.org/2000/svg" xmlns:xlink="http://www.w3.org/1999/xlink">
    <!-- Generator: Sketch 51.1 (57501) - http://www.bohemiancoding.com/sketch -->
    <title>gestion</title>
    <desc>Created with Sketch.</desc>
    <defs></defs>
    <g id="Page-1" stroke="none" stroke-width="1" fill="none" fill-rule="evenodd">
        <g id="Artboard" transform="translate(-113.000000, -779.000000)" fill="#FFFFFF" fill-rule="nonzero">
            <path d="M144.024845,810.490683 C144.490683,811.142857 144.863354,811.701863 145.329193,812.354037 C144.397516,813.099379 143.931677,813.937888 144.397516,815.055901 C144.863354,816.267081 145.888199,816.453416 147.099379,816.267081 C147.285714,817.10559 147.47205,817.944099 147.751553,818.782609 C146.354037,819.341615 145.795031,819.993789 145.795031,821.018634 C145.795031,822.043478 146.354037,822.602484 147.84472,823.161491 C147.751553,824 147.565217,824.838509 147.47205,825.677019 C145.888199,825.677019 145.142857,826.049689 144.770186,827.074534 C144.397516,828.006211 144.770186,828.84472 145.888199,829.776398 C145.42236,830.521739 144.956522,831.267081 144.490683,832.012422 C143.372671,831.360248 142.347826,831.267081 141.509317,832.291925 C140.670807,833.223602 140.857143,834.15528 141.509317,835.180124 C140.857143,835.645963 140.298137,836.018634 139.645963,836.484472 C138.900621,835.552795 137.968944,835.180124 136.757764,835.645963 C135.919255,836.018634 135.546584,836.857143 135.732919,838.254658 C134.89441,838.440994 134.055901,838.627329 133.217391,838.906832 C132.84472,837.695652 132.099379,836.857143 130.701863,837.043478 C129.863354,837.136646 129.21118,837.78882 128.931677,839 C128.093168,838.906832 127.254658,838.720497 126.322981,838.627329 C126.322981,837.136646 125.857143,836.391304 124.925466,836.018634 C123.993789,835.645963 123.15528,836.018634 122.223602,837.043478 C121.478261,836.57764 120.732919,836.111801 119.987578,835.645963 C120.546584,834.248447 120.453416,833.31677 119.614907,832.664596 C118.869565,832.012422 117.937888,832.012422 116.819876,832.664596 C116.354037,832.10559 115.981366,831.453416 115.515528,830.89441 C116.726708,829.869565 117.006211,829.031056 116.540373,828.006211 C116.074534,827.074534 115.236025,826.701863 113.745342,826.981366 C113.559006,826.142857 113.372671,825.397516 113.093168,824.465839 C114.397516,824.186335 115.236025,823.440994 115.142857,822.043478 C115.049689,821.018634 114.304348,820.459627 113,820.180124 C113.093168,819.341615 113.279503,818.503106 113.372671,817.664596 C114.677019,817.850932 115.701863,817.571429 116.167702,816.267081 C116.540373,815.335404 116.167702,814.496894 114.956522,813.565217 C115.42236,812.819876 115.888199,812.167702 116.354037,811.42236 C117.751553,812.167702 118.68323,812.074534 119.428571,811.236025 C120.173913,810.490683 120.173913,809.465839 119.335404,808.254658 C119.89441,807.78882 120.546584,807.416149 121.10559,806.950311 C122.223602,808.161491 123.062112,808.440994 124.086957,807.975155 C125.018634,807.509317 125.391304,806.670807 125.111801,805.086957 C125.950311,804.900621 126.78882,804.714286 127.627329,804.52795 C128.093168,806.111801 128.838509,806.670807 129.956522,806.57764 C131.074534,806.484472 131.63354,805.925466 132.006211,804.341615 C132.84472,804.434783 133.68323,804.621118 134.521739,804.714286 C134.335404,806.298137 134.801242,807.136646 135.826087,807.509317 C136.850932,807.881988 137.782609,807.416149 138.52795,806.204969 C138.900621,806.391304 139.273292,806.57764 139.645963,806.857143 C140.018634,807.043478 140.391304,807.322981 140.57764,807.509317 C140.484472,808.254658 140.204969,808.906832 140.298137,809.559006 C140.298137,809.931677 140.670807,810.490683 140.950311,810.770186 C141.881988,811.42236 142.813665,811.329193 144.024845,810.490683 M139.086957,821.57764 C139.086957,816.826087 135.267081,812.913043 130.515528,812.913043 C125.763975,812.913043 121.944099,816.732919 121.850932,821.484472 C121.850932,826.236025 125.670807,830.149068 130.42236,830.149068 C135.267081,830.149068 139.086957,826.329193 139.086957,821.57764 M119.055901,799.496894 C118.68323,798.751553 118.310559,798.099379 117.937888,797.447205 C119.149068,796.888199 119.801242,796.049689 119.428571,794.745342 C119.055901,793.534161 118.124224,793.161491 116.913043,793.254658 L116.913043,790.645963 C118.217391,790.73913 119.242236,790.273292 119.521739,788.968944 C119.801242,787.757764 119.149068,787.012422 118.031056,786.453416 C118.496894,785.708075 118.962733,784.962733 119.242236,784.403727 C120.080745,784.496894 120.732919,784.776398 121.385093,784.68323 C121.757764,784.68323 122.223602,784.310559 122.503106,784.031056 C123.248447,783.285714 123.248447,782.354037 122.503106,781.142857 C123.15528,780.770186 123.807453,780.397516 124.459627,780.024845 C125.391304,781.329193 126.136646,781.701863 127.161491,781.42236 C128.186335,781.142857 128.652174,780.397516 128.652174,779 L131.26087,779 C131.26087,780.21118 131.63354,781.236025 132.937888,781.515528 C134.055901,781.795031 134.89441,781.236025 135.453416,780.118012 C136.198758,780.583851 136.944099,781.049689 137.689441,781.42236 C137.037267,782.913043 137.037267,783.751553 137.782609,784.496894 C138.52795,785.242236 139.459627,785.242236 140.670807,784.590062 C141.043478,785.242236 141.416149,785.89441 141.78882,786.639752 C140.670807,787.198758 140.204969,788.037267 140.484472,789.248447 C140.763975,790.36646 141.695652,790.832298 142.813665,790.832298 L142.813665,793.440994 C141.602484,793.440994 140.670807,793.906832 140.391304,795.118012 C140.111801,796.236025 140.670807,796.981366 141.695652,797.63354 C141.229814,798.378882 140.763975,799.124224 140.298137,799.869565 C139.086957,799.217391 138.248447,799.217391 137.409938,799.962733 C136.664596,800.708075 136.571429,801.546584 137.130435,802.850932 C136.478261,803.223602 135.826087,803.596273 135.173913,803.968944 C134.149068,802.664596 133.496894,802.291925 132.47205,802.571429 C131.447205,802.850932 131.074534,803.503106 130.981366,804.993789 L128.372671,804.993789 C128.372671,803.782609 128,802.850932 126.881988,802.478261 C125.670807,802.10559 124.832298,802.664596 124.273292,803.875776 C123.52795,803.409938 122.782609,803.037267 122.037267,802.571429 C122.689441,801.546584 122.875776,800.521739 121.944099,799.590062 C121.10559,798.751553 120.080745,798.751553 119.055901,799.496894 M123.15528,791.950311 C123.062112,795.677019 126.136646,798.751553 129.863354,798.751553 C133.496894,798.751553 136.664596,795.770186 136.664596,792.136646 C136.664596,788.31677 133.776398,785.242236 129.956522,785.242236 C126.229814,785.242236 123.15528,788.223602 123.15528,791.950311 M135.080745,831.919255 L126.043478,831.919255 C126.043478,830.242236 126.043478,828.47205 126.043478,826.795031 C126.043478,824.838509 127.440994,823.254658 129.304348,823.068323 C129.956522,822.975155 130.608696,822.975155 131.26087,822.975155 C133.403727,822.975155 135.080745,824.652174 135.080745,826.888199 C135.080745,828.565217 135.080745,830.242236 135.080745,831.919255 Z M130.515528,822.509317 C129.024845,822.509317 127.906832,821.298137 127.906832,819.900621 C127.906832,818.409938 129.118012,817.291925 130.515528,817.291925 C132.006211,817.291925 133.217391,818.503106 133.124224,819.993789 C133.124224,821.391304 132.006211,822.509317 130.515528,822.509317 Z M174.490683,782.819876 C175.236025,783.285714 175.888199,783.751553 176.447205,784.124224 C176.354037,784.962733 176.074534,785.614907 176.167702,786.360248 C176.167702,786.732919 176.540373,787.198758 176.819876,787.478261 C177.658385,788.223602 178.68323,788.130435 179.801242,787.291925 C180.267081,787.850932 180.639752,788.409938 181.10559,788.968944 C179.987578,790.273292 179.801242,791.018634 180.453416,792.043478 C181.012422,792.975155 181.850932,793.161491 183.248447,792.78882 C183.434783,793.161491 183.52795,793.534161 183.714286,794 C183.900621,794.372671 183.993789,794.838509 184.180124,795.21118 C182.782609,796.049689 182.31677,796.795031 182.596273,797.913043 C182.875776,798.937888 183.621118,799.403727 185.018634,799.496894 C185.018634,800.149068 185.111801,800.801242 185.111801,801.546584 C185.111801,801.732919 185.111801,801.919255 185.111801,802.10559 C183.621118,802.385093 182.875776,802.944099 182.782609,804.062112 C182.689441,805.180124 183.15528,805.832298 184.552795,806.484472 C184.36646,807.322981 184.086957,808.161491 183.900621,808.813665 C183.15528,808.906832 182.409938,809 181.850932,809.186335 C181.478261,809.372671 181.198758,809.745342 181.012422,810.21118 C180.546584,811.142857 180.919255,811.981366 182.037267,813.006211 C181.850932,813.378882 181.571429,813.751553 181.291925,814.031056 C181.012422,814.403727 180.826087,814.776398 180.546584,815.055901 C179.055901,814.403727 178.217391,814.496894 177.47205,815.242236 C176.819876,815.987578 176.819876,816.919255 177.565217,818.223602 C177.006211,818.689441 176.447205,819.062112 175.888199,819.52795 C174.770186,818.409938 173.838509,818.223602 172.906832,818.782609 C171.975155,819.341615 171.695652,820.273292 172.068323,821.670807 C171.229814,821.950311 170.484472,822.229814 169.832298,822.509317 C169.180124,821.950311 168.714286,821.391304 168.15528,821.018634 C167.875776,820.832298 167.31677,820.832298 166.850932,820.925466 C165.826087,821.111801 165.360248,821.857143 165.267081,823.347826 L162.658385,823.347826 C162.378882,821.857143 161.726708,821.111801 160.608696,821.018634 C159.583851,820.925466 158.838509,821.57764 158.372671,822.881988 C157.534161,822.602484 156.695652,822.416149 155.857143,822.136646 C156.136646,820.552795 155.763975,819.714286 154.73913,819.248447 C153.807453,818.782609 152.875776,819.062112 151.944099,820.273292 C151.198758,819.807453 150.546584,819.341615 149.801242,818.875776 C150.453416,817.385093 150.453416,816.453416 149.614907,815.708075 C148.869565,815.055901 147.84472,815.055901 146.63354,815.801242 C146.167702,815.242236 145.795031,814.68323 145.329193,814.124224 C146.167702,813.285714 146.540373,812.26087 145.888199,811.236025 C145.329193,810.304348 144.397516,810.118012 143.279503,810.397516 C143,809.559006 142.720497,808.813665 142.347826,807.881988 C143.372671,807.322981 144.024845,806.484472 143.745342,805.273292 C143.465839,804.15528 142.627329,803.689441 141.509317,803.689441 C141.509317,802.850932 141.416149,801.919255 141.416149,801.080745 C142.627329,800.89441 143.559006,800.242236 143.559006,799.031056 C143.652174,798.006211 143,797.26087 141.975155,796.888199 C142.254658,796.049689 142.440994,795.21118 142.720497,794.279503 C143.931677,794.465839 144.863354,794.186335 145.42236,793.068323 C145.888199,792.043478 145.42236,791.204969 144.583851,790.459627 C145.049689,789.714286 145.608696,788.968944 146.074534,788.31677 C147.378882,788.875776 148.310559,788.782609 148.962733,788.037267 C149.708075,787.291925 149.708075,786.453416 149.055901,785.242236 C149.614907,784.776398 150.173913,784.403727 150.826087,783.84472 C151.291925,784.496894 151.850932,785.055901 152.596273,785.055901 C153.062112,785.055901 153.52795,784.962733 153.900621,784.68323 C154.832298,784.124224 155.111801,783.099379 154.552795,781.795031 C155.391304,781.515528 156.229814,781.142857 156.975155,780.863354 C157.627329,782.354037 158.372671,782.819876 159.490683,782.63354 C160.608696,782.447205 161.167702,781.701863 161.26087,780.024845 L163.869565,780.024845 C163.869565,780.770186 164.055901,781.515528 164.708075,781.981366 C165.080745,782.26087 165.546584,782.447205 166.012422,782.447205 C167.037267,782.540373 167.782609,781.888199 168.248447,780.490683 C168.621118,780.583851 169.086957,780.677019 169.459627,780.770186 C169.832298,780.863354 170.298137,781.049689 170.763975,781.142857 C170.484472,781.888199 170.391304,782.63354 170.857143,783.285714 C171.136646,783.658385 171.509317,783.937888 171.881988,784.124224 C172.720497,784.403727 173.559006,784.031056 174.490683,782.819876 M176.819876,801.546584 C176.819876,794 170.763975,787.944099 163.217391,787.850932 C155.670807,787.850932 149.521739,793.906832 149.521739,801.453416 C149.521739,809 155.57764,815.149068 163.124224,815.149068 C170.670807,815.149068 176.819876,809 176.819876,801.546584 M157.254658,801.732919 L157.906832,801.732919 C158.372671,801.732919 158.559006,801.919255 158.559006,802.385093 C158.559006,802.850932 158.372671,803.130435 157.906832,803.130435 L157.254658,803.130435 C157.254658,803.503106 157.347826,803.782609 157.534161,803.782609 C157.627329,803.782609 157.627329,803.782609 157.720497,803.782609 C157.813665,803.782609 157.906832,803.782609 157.906832,803.782609 C158.093168,803.782609 158.186335,803.875776 158.279503,803.968944 C158.372671,804.15528 158.465839,804.248447 158.465839,804.434783 C158.465839,804.714286 158.372671,804.900621 158.279503,804.993789 C158.186335,805.180124 158,805.180124 157.720497,805.180124 C157.534161,805.180124 157.347826,805.180124 157.068323,805.086957 C156.78882,805.086957 156.602484,804.993789 156.509317,804.993789 C156.322981,804.993789 156.136646,804.993789 155.763975,805.086957 C155.484472,805.086957 155.204969,805.180124 155.111801,805.180124 C154.459627,805.180124 154.180124,804.900621 154.180124,804.341615 C154.180124,804.15528 154.273292,803.968944 154.36646,803.875776 C154.459627,803.689441 154.645963,803.689441 154.73913,803.689441 C154.832298,803.689441 154.925466,803.689441 155.018634,803.689441 C155.111801,803.689441 155.204969,803.689441 155.298137,803.689441 C155.484472,803.689441 155.57764,803.503106 155.57764,803.223602 L155.57764,803.037267 L152.875776,803.037267 C152.409938,803.037267 152.223602,802.850932 152.223602,802.385093 C152.223602,802.10559 152.409938,801.639752 152.689441,801.173913 L154.645963,798.192547 C154.73913,798.006211 154.832298,797.913043 154.832298,797.913043 C154.925466,797.819876 155.018634,797.726708 155.111801,797.726708 C155.391304,797.63354 155.670807,797.540373 156.043478,797.540373 C156.78882,797.540373 157.161491,797.819876 157.161491,798.378882 L157.161491,801.732919 L157.254658,801.732919 Z M154.180124,801.732919 L155.57764,801.732919 L155.57764,799.590062 L154.180124,801.732919 Z M163.403727,802.757764 L162.84472,802.757764 C162.565217,802.757764 162.47205,802.757764 162.47205,802.757764 C162.47205,802.757764 162.378882,802.850932 162.378882,802.944099 C162.378882,803.223602 162.378882,803.409938 162.378882,803.503106 C162.378882,803.689441 162.47205,803.875776 162.658385,803.875776 C162.751553,803.875776 162.84472,803.875776 162.937888,803.875776 C163.031056,803.875776 163.124224,803.875776 163.217391,803.875776 C163.403727,803.875776 163.590062,803.968944 163.68323,804.15528 C163.776398,804.341615 163.869565,804.434783 163.869565,804.621118 C163.869565,804.900621 163.776398,805.086957 163.590062,805.180124 C163.403727,805.36646 163.217391,805.36646 162.937888,805.36646 C162.751553,805.36646 162.47205,805.36646 162.192547,805.273292 C161.913043,805.273292 161.63354,805.180124 161.447205,805.180124 C161.26087,805.180124 160.981366,805.180124 160.608696,805.273292 C160.236025,805.273292 159.956522,805.36646 159.770186,805.36646 C159.21118,805.36646 158.931677,805.086957 158.931677,804.52795 C158.931677,804.341615 159.024845,804.15528 159.118012,804.062112 C159.21118,803.875776 159.397516,803.875776 159.490683,803.875776 C159.583851,803.875776 159.583851,803.875776 159.770186,803.875776 C159.863354,803.875776 159.956522,803.875776 160.049689,803.875776 C160.236025,803.875776 160.329193,803.596273 160.329193,803.037267 L160.329193,800.242236 C160.329193,799.962733 160.329193,799.776398 160.329193,799.776398 C160.329193,799.496894 160.236025,799.403727 160.049689,799.403727 C159.956522,799.403727 159.956522,799.403727 159.770186,799.403727 C159.677019,799.403727 159.583851,799.403727 159.490683,799.403727 C159.304348,799.403727 159.21118,799.310559 159.118012,799.217391 C159.024845,799.031056 158.931677,798.937888 158.931677,798.751553 C158.931677,798.192547 159.304348,797.913043 159.956522,797.913043 C160.142857,797.913043 160.329193,797.913043 160.701863,798.006211 C160.981366,798.006211 161.26087,798.099379 161.447205,798.099379 C161.913043,798.099379 162.285714,798.099379 162.751553,798.006211 C163.124224,798.006211 163.403727,797.913043 163.496894,797.913043 C164.242236,797.913043 164.89441,798.099379 165.360248,798.565217 C165.919255,799.031056 166.10559,799.590062 166.10559,800.428571 C166.10559,801.173913 165.826087,801.732919 165.360248,802.198758 C164.987578,802.478261 164.242236,802.757764 163.403727,802.757764 M162.378882,799.869565 C162.378882,799.68323 162.378882,799.496894 162.565217,799.496894 C162.565217,799.403727 162.751553,799.403727 162.937888,799.403727 C163.310559,799.403727 163.68323,799.496894 163.869565,799.590062 C164.149068,799.776398 164.242236,799.962733 164.242236,800.335404 C164.242236,800.987578 163.776398,801.360248 162.84472,801.360248 C162.658385,801.360248 162.47205,801.360248 162.47205,801.267081 C162.378882,801.267081 162.378882,801.080745 162.378882,800.89441 L162.378882,799.869565 Z M167.875776,802.850932 L167.875776,800.055901 C167.875776,799.496894 167.782609,799.217391 167.689441,799.217391 C167.596273,799.217391 167.503106,799.217391 167.409938,799.217391 C167.31677,799.217391 167.223602,799.217391 167.130435,799.217391 C166.944099,799.217391 166.850932,799.124224 166.757764,799.031056 C166.664596,798.84472 166.571429,798.751553 166.571429,798.565217 C166.571429,798.378882 166.664596,798.099379 166.757764,798.006211 C166.850932,797.819876 167.037267,797.726708 167.223602,797.726708 C167.409938,797.726708 167.596273,797.726708 167.968944,797.819876 C168.341615,797.819876 168.621118,797.913043 168.900621,797.913043 C168.993789,797.913043 169.273292,797.913043 169.552795,797.819876 C169.925466,797.819876 170.111801,797.726708 170.391304,797.726708 C170.950311,797.726708 171.229814,798.006211 171.229814,798.565217 C171.229814,798.751553 171.136646,798.937888 171.136646,799.031056 C171.043478,799.217391 170.857143,799.310559 170.670807,799.310559 C170.57764,799.310559 170.57764,799.310559 170.391304,799.310559 C170.204969,799.310559 170.204969,799.310559 170.111801,799.310559 C170.018634,799.310559 169.925466,799.310559 169.925466,799.403727 C169.832298,799.496894 169.832298,799.776398 169.832298,800.149068 L169.832298,802.944099 C169.832298,803.31677 169.832298,803.596273 169.925466,803.689441 C170.018634,803.782609 170.204969,803.875776 170.57764,803.875776 L171.229814,803.875776 C171.78882,803.875776 172.068323,803.689441 172.068323,803.31677 C172.068323,803.223602 172.068323,803.130435 171.975155,802.944099 C171.975155,802.757764 171.881988,802.664596 171.881988,802.571429 C171.881988,802.291925 171.975155,802.10559 172.161491,802.012422 C172.347826,801.919255 172.534161,801.826087 172.813665,801.826087 C173.372671,801.826087 173.652174,802.10559 173.652174,802.757764 C173.652174,802.850932 173.652174,803.037267 173.652174,803.31677 C173.652174,803.596273 173.652174,803.782609 173.652174,803.875776 C173.652174,803.968944 173.652174,804.15528 173.652174,804.341615 C173.652174,804.52795 173.652174,804.714286 173.652174,804.807453 C173.652174,805.180124 173.372671,805.36646 172.906832,805.36646 C172.534161,805.36646 171.881988,805.36646 170.950311,805.36646 C169.925466,805.36646 169.180124,805.273292 168.714286,805.273292 C168.434783,805.273292 168.15528,805.273292 167.782609,805.36646 C167.409938,805.36646 167.130435,805.459627 166.944099,805.459627 C166.757764,805.459627 166.664596,805.36646 166.571429,805.273292 C166.478261,805.086957 166.385093,804.900621 166.385093,804.714286 C166.385093,804.52795 166.478261,804.341615 166.571429,804.248447 C166.664596,804.062112 166.757764,804.062112 166.944099,804.062112 C166.944099,804.062112 167.037267,804.062112 167.223602,804.062112 C167.31677,804.062112 167.409938,804.062112 167.503106,804.062112 C167.782609,803.782609 167.875776,803.503106 167.875776,802.850932 Z" id="gestion"></path>
        </g>
    </g>
</svg>