<?xml version="1.0" encoding="UTF-8"?>
<svg width="46px" height="41px" viewBox="0 0 46 41" version="1.1" xmlns="http://www.w3.org/2000/svg" xmlns:xlink="http://www.w3.org/1999/xlink">
    <!-- Generator: Sketch 51.1 (57501) - http://www.bohemiancoding.com/sketch -->
    <title>industrial</title>
    <desc>Created with Sketch.</desc>
    <defs></defs>
    <g id="Page-1" stroke="none" stroke-width="1" fill="none" fill-rule="evenodd">
        <g id="Artboard" transform="translate(-932.000000, -1675.000000)" fill="#2C6149" fill-rule="nonzero">
            <path d="M966,1705.7 C966,1705 965.8,1704.5 965.2,1704.1 C962.1,1702 959.6,1699.8 956.5,1697.7 C956.2,1697.5 956,1697.1 956,1697.2 L956,1703.5 C950,1701.2 948,1699.1 943,1696.9 L943,1702.9 C941,1700.9 936.2,1699 932.6,1697.1 C932.5,1697.3 932.7,1697.4 932.7,1697.5 C932.7,1703.3 932.8,1709 932.8,1714.8 C932.8,1715.8 933.4,1715.7 934,1715.7 C944.2,1715.7 954.5,1715.7 964.7,1715.7 C965.7,1715.7 966.1,1715.5 966.1,1714.4 C966,1711.4 966,1708.5 966,1705.7 M948,1712.4 C948,1713.1 947.7,1713.4 947,1713.3 C944,1713.3 940.9,1713.3 937.9,1713.3 C937.2,1713.3 936.9,1713.1 936.9,1712.4 C937,1710.8 937,1709.2 936.9,1707.7 C936.9,1706.9 937.2,1706.8 937.9,1706.8 C939.4,1706.8 941,1706.8 942.5,1706.8 C944,1706.8 945.5,1706.8 947,1706.8 C947.7,1706.8 948,1706.9 948,1707.7 C948,1709.3 948,1710.8 948,1712.4 M961.9,1712.5 C961.9,1713.2 961.6,1713.4 961,1713.4 C959.5,1713.4 957.9,1713.4 956.4,1713.4 C954.9,1713.4 953.4,1713.4 951.9,1713.4 C951.2,1713.4 950.9,1713.2 950.9,1712.4 C950.9,1710.8 950.9,1709.2 950.9,1707.7 C950.9,1707.1 951.1,1706.8 951.7,1706.8 C954.8,1706.8 957.9,1706.8 960.9,1706.8 C961.6,1706.8 961.8,1707 961.8,1707.7 C961.9,1709.3 961.9,1710.9 961.9,1712.5 Z M957.4,1698 C960.5,1696.5 963.5,1695.1 966.5,1693.6 C966.9,1693.4 967.3,1693.5 967.7,1693.7 C970.8,1695.2 973.9,1696.7 977,1698.2 C977.6,1698.5 977.9,1698.8 977.6,1699.6 C976.4,1703.5 975.3,1707.4 974.2,1711.4 C974,1712.2 973.5,1712.5 972.8,1712.7 C970.8,1713.2 969,1712.2 967,1712.1 C966.5,1712.1 966.7,1711.5 966.7,1711.2 C966.7,1709.4 966.6,1707.7 966.7,1705.9 C966.8,1704.8 966.4,1704.2 965.5,1703.6 C962.8,1701.7 960.2,1699.9 957.4,1698 Z M941.1,1700 C939.6,1699.2 938.2,1698.4 936.8,1697.7 C936.1,1697.3 936.3,1696.7 936.3,1696.2 C936.5,1691.3 936.6,1686.3 936.8,1681.4 C936.9,1679.8 937,1678.1 937,1676.5 C937,1675.6 937.3,1675.3 938.1,1675.4 C938.8,1675.6 939.9,1674.7 940,1676.4 C940.2,1682.5 940.6,1688.7 940.9,1694.8 C941.1,1696.5 941.3,1698.2 941.1,1700 Z M975.6,1696.6 C973.1,1695.4 970.7,1694.3 968.5,1693.1 C967.4,1692.5 966.6,1692.5 965.6,1693.1 C963.5,1694.2 961.3,1695.2 959.2,1696.3 C958.4,1696.7 958.2,1696.5 958.3,1695.7 C958.3,1694.2 958.3,1692.6 958.3,1691.1 C958.3,1690.2 958.7,1689.9 959.6,1689.9 C964.5,1689.9 969.5,1689.9 974.4,1689.9 C975,1689.9 975.7,1690 975.7,1690.8 C975.6,1692.6 975.6,1694.5 975.6,1696.6 Z M952.2,1700.4 C950.6,1699.4 949.2,1698.5 947.7,1697.7 C947.2,1697.4 947.3,1697 947.3,1696.6 C947.6,1691.2 947.8,1685.8 948,1680.3 C948,1679.4 948.5,1679.2 949.1,1679.4 C949.8,1679.6 950.9,1678.7 951,1680.2 C951.2,1684.1 951.5,1688.1 951.7,1692 C951.9,1694.7 952,1697.4 952.2,1700.4 Z M967,1689 C965.7,1689 964.4,1689 963.1,1689 C962.7,1689 962.1,1689.2 962.1,1688.6 C962,1688 962.5,1687.4 963,1687.5 C965.4,1688 965.4,1686.4 965.4,1684.8 C965.5,1683.2 966.7,1684 967.5,1683.8 C968.4,1683.6 968.6,1684.1 968.7,1684.9 C968.7,1685.2 968.8,1685.5 968.8,1685.9 C968.8,1687 969.2,1687.7 970.5,1687.5 C970.8,1687.4 971.2,1687.4 971.6,1687.7 C971.9,1688 972.2,1688.2 972.1,1688.6 C972,1689 971.6,1688.9 971.3,1688.9 C969.7,1689.1 968.4,1689 967,1689 Z M961.3,1679.9 C961.4,1679 961.7,1678.4 962.4,1678 C963.1,1677.6 964.1,1677.5 964.5,1678.1 C965.2,1679.3 966.7,1680 967,1681.5 C967.1,1682 967.4,1682.4 966.9,1682.8 C966.5,1683.2 966.2,1682.8 965.8,1682.7 C964.8,1682.4 964,1681.8 962.9,1681.8 C961.9,1681.8 961.4,1680.8 961.3,1679.9 Z" id="industrial"></path>
        </g>
    </g>
</svg>